<mxfile host="65bd71144e">
    <diagram id="lmCbMlg6obe94SAOOeGt" name="Page-1">
        <mxGraphModel dx="1655" dy="1878" grid="1" gridSize="10" guides="1" tooltips="1" connect="1" arrows="1" fold="1" page="1" pageScale="1" pageWidth="850" pageHeight="1100" math="0" shadow="0">
            <root>
                <mxCell id="0"/>
                <mxCell id="1" parent="0"/>
                <mxCell id="44" value="" style="rounded=0;whiteSpace=wrap;html=1;" parent="1" vertex="1">
                    <mxGeometry x="180" y="-40" width="860" height="610" as="geometry"/>
                </mxCell>
                <mxCell id="31" value="" style="rounded=1;whiteSpace=wrap;html=1;fillColor=#f5f5f5;fontColor=#333333;strokeColor=#666666;" parent="1" vertex="1">
                    <mxGeometry x="320" y="-10" width="110" height="420" as="geometry"/>
                </mxCell>
                <mxCell id="3" value="" style="image;sketch=0;aspect=fixed;html=1;points=[];align=center;fontSize=12;image=img/lib/mscae/Service_Bus.svg;" parent="1" vertex="1">
                    <mxGeometry x="732.9" y="120" width="50" height="50" as="geometry"/>
                </mxCell>
                <mxCell id="38" style="edgeStyle=none;html=1;fillColor=#ffe6cc;strokeColor=#FF3333;" parent="1" source="5" target="48" edge="1">
                    <mxGeometry relative="1" as="geometry">
                        <mxPoint x="130" y="306" as="targetPoint"/>
                        <Array as="points">
                            <mxPoint x="380" y="306"/>
                            <mxPoint x="380" y="256"/>
                        </Array>
                    </mxGeometry>
                </mxCell>
                <mxCell id="53" value="Create Confirmation Email" style="edgeLabel;html=1;align=center;verticalAlign=middle;resizable=0;points=[];" parent="38" vertex="1" connectable="0">
                    <mxGeometry x="-0.3143" y="-1" relative="1" as="geometry">
                        <mxPoint as="offset"/>
                    </mxGeometry>
                </mxCell>
                <mxCell id="5" value="" style="image;aspect=fixed;html=1;points=[];align=center;fontSize=12;image=img/lib/azure2/integration/Logic_Apps.svg;" parent="1" vertex="1">
                    <mxGeometry x="724.4" y="280" width="67" height="52" as="geometry"/>
                </mxCell>
                <mxCell id="6" value="" style="image;aspect=fixed;html=1;points=[];align=center;fontSize=12;image=img/lib/azure2/app_services/App_Service_Plans.svg;" parent="1" vertex="1">
                    <mxGeometry x="791.4" y="326" width="20" height="20" as="geometry"/>
                </mxCell>
                <mxCell id="7" value="" style="image;aspect=fixed;html=1;points=[];align=center;fontSize=12;image=img/lib/azure2/storage/Storage_Accounts.svg;" parent="1" vertex="1">
                    <mxGeometry x="950" y="-1" width="65" height="52" as="geometry"/>
                </mxCell>
                <mxCell id="9" value="Azure &lt;br&gt;API Management" style="image;aspect=fixed;html=1;points=[];align=center;fontSize=12;image=img/lib/azure2/integration/API_Management_Services.svg;" parent="1" vertex="1">
                    <mxGeometry x="342.50000000000006" y="14" width="65" height="60" as="geometry"/>
                </mxCell>
                <mxCell id="28" style="edgeStyle=none;html=1;" parent="1" source="13" target="23" edge="1">
                    <mxGeometry relative="1" as="geometry"/>
                </mxCell>
                <mxCell id="51" style="edgeStyle=none;html=1;" parent="1" source="13" target="16" edge="1">
                    <mxGeometry relative="1" as="geometry"/>
                </mxCell>
                <mxCell id="13" value="Communication Services" style="image;aspect=fixed;html=1;points=[];align=center;fontSize=12;image=img/lib/azure2/other/Azure_Communication_Services.svg;" parent="1" vertex="1">
                    <mxGeometry x="732.9" y="460" width="68" height="50" as="geometry"/>
                </mxCell>
                <mxCell id="52" style="edgeStyle=none;html=1;" parent="1" source="16" target="13" edge="1">
                    <mxGeometry relative="1" as="geometry"/>
                </mxCell>
                <mxCell id="16" value="Email&#xa;Communication Services" style="shape=image;verticalLabelPosition=bottom;labelBackgroundColor=default;verticalAlign=top;aspect=fixed;imageAspect=0;image=data:image/png,iVBORw0KGgoAAAANSUhEUgAAAE0AAABMCAYAAAAoVToVAAAAAXNSR0IArs4c6QAAAARnQU1BAACxjwv8YQUAAAAJcEhZcwAADsMAAA7DAcdvqGQAAAn/SURBVHhe7ZttcBxlAcd/u7f3llzucmkubVLSlLQdlBZKiDAWv2BqWyz4pR1eClJRtCOOjMoHmLEyiMMMOuroYD8gaB2HsVDRlpFRgQjKoBQstaVN5K30hbZ5f7nk7pK7vd19/LB7yWVzJbnNXS5x7jez8+R5nr3s7S//ffbZ53KSEEJQJi9ke0OZmSlLc0BZmgPK0hxQluaAsjQHlKU5oCzNAWVpDihLc0BZmgPK0hxQluaAsjQHlKU5QFoI62kdKuyPAwLurYY6l32PhUVJpfXp8PcxeCY+2VbngjY/3FqVvefComTSOlR4cNDeOsk6L9wbWpipK4m0/bGp6boYCzV18yrtRErw2JCgTzcPKQApq/9i9bYKiR1BmTolq7OEzJu0fVGd30V1pCwZ+ZRLFYnPBWRury799Vp0ab2a4IELKXo1kdtGnuUXa9zcUVPayBVV2lMDKk8NpKxa5uwzOK8vdctsDrm5s9aT1T9/FEVaT9rgxxfGOZbQ7EEpaLmzzsvOiM9++KJTcGm/7R3nNz1jOU+yGGW9x8UDjZVcFXDb30rRKJi0HlXn0TMxjsbT9q6is8wjs3WJj7vqK+1dRaEg0vZeiPHrC/HJCGSY5/oyj4s9n1xCvbe4d9g5SetO6Txycoj/jKRAkhBCIE1cP6WpN/gUboxUcHdj0P52C4ZjaU+eHeGJs9HJMUYCIXKUJepv8Ck8fuVS6n2Fn544kvbEO3GOGOP25gVHjUdhy7Iqrq8qrDhH0g7+ZIzUWoX96z0fO8aUsl7ngsaHurjsEoWbd9dl7TR3HC1CJocF4p9pdu4bY0Uiy3n2CZSwvvb9cZq/cZb48eJcDY6kZUgOC65/bpxbj6UQhoGRtZWiXisZtD7chfbdLoa7NfvbLRhzksZE6jS+tC/JipiBoZdmu/z9cVZ/8xzxE8VJVzZzlpYhGRW0Pa9y+wkNXdPQNB1d09Ctslj1WnQ++8NejO/1FDVd2RRMGpY4Xtf52h8NmhKZFOhmaVhlAetXnEyxdMd5+t5O2t9KUSmotAzJqGDzC4I73wND19F1HUOzygLUI7LB5p8OIz08YD/0vFAUaVji5EOCe553sXKMqSmZ2PKvX3laY/nOXvqOz2+6simatAzJqGDryy7u+lBB13Q0zRzzMuPTbOsRWXDjngTKI0P2Q8w7RZeGJc71JnzrJT+XJmVbembe2o4bNH11cFbpCtcXdvafC0dPBE/vTtibZo2vWiK+xuCXy+O5nyWzysaYzDXPqvQdz6z+TqW5xU/r1irC9QrhZe4pwk4dnZx6NLf4J34uBPMuLYOvWuLAhgQfKqr19DO5aiGALe8qJJ/M/Tlf69YqWrdWseIqP4dT0KnCWQ16NTCASgmWKbDKDVd64BMFXhUvmTQAXzXEVuvsiUyuljQlXHz6oKD/RO507drTQGS9nwMJeCEhSAqJtQo0WktoQetR6pwO53UYEVDjgpsCsLFAgSuptAy+anizZYy6boO+x3Onq7nFz82763i7WmHvKFQDGzwwKkxh+20PAjd4J/s60tCpwUo37ArB8jkOewtCGp4E3SOdpBNuGGycNrMP1ys88Icm9sUEz8YlbvCa7Z1puMRlyum0PQwEJVNYpwaNsin4kApdBjxYA+ut3+GEkksb0jp59cVjE/VwbYBLAleT6Dc/KAnXK+z6xXJerFLYH4NbfObJnzPM/W/xwe8vclPd4DaljVpneIMXRgw4rMH3a2Ctw7FuXqYcOfEk6Dj7yhRhAMMDcXrUo4TXdROuN9fCjoVcpjArHSOWhEbZHLsmsP35D6mTYx3WOLfODdco8PNhwaglPl9KkjR7ui7GdZtW85UftXFPr2C9W+KcLpAwB36sS/BQGqKG2T4izFIgCEkSQVlwnVtiVJiiR4Tgv2mJDR7BeV2i2SP4dti+KDcz8yvNk6Djgzf5oKPb3pOTh351E2+sqecfCYN1bpnXU4a10mhOUm6rkPhIByxJIdm8/DKMCLN9RAheT5n7ZV7/eZ/MX5MGj0ZkLvfmJ27epM02XRkiDVX87M872HFeY5Nf5i/jRvY5E3RJXOGW+Fdqaru9XKFIBGWJjvTU/T7jkzmhClorJL5Tk98old/eTrjI2DUTN3+9lTfGDHxCENWF+UhlWI9WhkFQCISY3m4vhzWDRpe1YJDV/tqYxjo3vBbLfw2uqNKGtE4OHnxu1pdjNpGGAB3jBus85pOCfWtU4KxqTGu3b1HdAKa3CyFYoUikjLwvtCJJ8yR49fCf8k5XNnUNVXyk6ggheHtcm5YiIQRnUtPbc5XCIGf7GVWnyn7LnQUFl5ZJ11BfzN6VF5GGKvpVg2pZIqoZCMNKiFVWy1YCbe25ypCLnO1R3bxR5EvhpBUgXXaEYSbK0HUrIZNlUJZytucqo1omYVPbhWEQdPBvHwWRVqh0ZdPfFSNgvbugLE1LCjAtORcrQ67prxeGICRLRNXs2fHsmJO0uNrHa0cKm64MfV0x6hWJU0lt2mecZnp0gpI1Vs2wTSTNtgkhMPKfcTmT5q8dZ0jrpL29nYGewqXLzhqfC4TBSq9rMiXWhsgkzTbeTfRnfjYIueSc/Su9CqfHVfthZ8TR5La/K0bnW/lPI/Jh7afqiddU8OX3omyvDXBgID7lPtdW7ed0UuN00vwnwsycNkN2/e5lQfb2jE7pDysyLQEvZ5Jp9l4WyuqZGUfS5pN7P4hS6/ZwNJ5iOK1PLIdfHfQxrOqcSaUJuVw0V7hBQFTTJ5bLh9IGkgRtYT8H+qcur2+sqeDIaIpb6rzcsbTCftiPxdHlOZ9sr/Xx8mCcbbWV1h3T4FKvQkulh7awn221ATaG/ea4J8xL9VKfwkqvwsawn221lTT73VxV6Zl4fUiWWOlVEEJneyQ/YSyGpAHsPhnF7VKoUVxUu12cGlc5MppkU00lz/aO2nefwsYllRwZTdJc4aG1ysepcZVmv4cnzw9zf1OQL0TyXwNf8EkDuK+pihMjYwyqGh8mUrT3xRhKpjEEhKz0GLqBbpXZ9dagn6FkmreGEuzvitIa9NPeH+OmJT5HwlgsSQN4J65y37uDXBsOEHa7aO+PAYJVlT7eiiamL28gsSkSACTa+0dZVeHjc5EAf+uP0+SXeWRN2H6IWbNopAGcTKj84OQwOhKbIyEORxOsrvQypGq81B+b/MAUQdjt5rblYV7qH+WaanPceub8ENvqA9zf7FwYi00agCHgsdPDPN0VZ1Wlly1LQ9R4XPx7eOoa37Vh8zsFJ+MpXuwbwSfDrhUhttbN/bsGi05aho/G0zzXHeeVgQQXkhqrA1O/7jOoagyrGi0hH1vqKtleX7gvjS5aadmMagZDqs6YbqAZAq9LpkqRqfW48Mj5r2LMxP+FtPlmUUw5FhplaQ4oS3NAWZoDytIcUJbmgP8B6oqJ2A6oAQgAAAAASUVORK5CYII=;" parent="1" vertex="1">
                    <mxGeometry x="920.82" y="447" width="77" height="76" as="geometry"/>
                </mxCell>
                <mxCell id="23" value="" style="shadow=0;dashed=0;html=1;strokeColor=none;fillColor=#EF8F21;labelPosition=center;verticalLabelPosition=bottom;verticalAlign=top;align=center;outlineConnect=0;shape=mxgraph.veeam.ms_outlook;" parent="1" vertex="1">
                    <mxGeometry x="90" y="462.6000000000001" width="44.8" height="44.8" as="geometry"/>
                </mxCell>
                <mxCell id="25" value="" style="image;aspect=fixed;html=1;points=[];align=center;fontSize=12;image=img/lib/azure2/app_services/App_Service_Plans.svg;" parent="1" vertex="1">
                    <mxGeometry x="600" y="160" width="20" height="20" as="geometry"/>
                </mxCell>
                <mxCell id="43" style="edgeStyle=none;html=1;" parent="1" source="32" edge="1">
                    <mxGeometry relative="1" as="geometry">
                        <mxPoint x="550" y="146.869118905047" as="targetPoint"/>
                    </mxGeometry>
                </mxCell>
                <mxCell id="32" value="" style="image;aspect=fixed;html=1;points=[];align=center;fontSize=12;image=img/lib/azure2/app_services/App_Services.svg;" parent="1" vertex="1">
                    <mxGeometry x="90" y="122" width="46" height="46" as="geometry"/>
                </mxCell>
                <mxCell id="40" style="edgeStyle=none;html=1;entryX=0.381;entryY=-0.011;entryDx=0;entryDy=0;entryPerimeter=0;" parent="1" source="5" target="13" edge="1">
                    <mxGeometry relative="1" as="geometry"/>
                </mxCell>
                <mxCell id="41" style="edgeStyle=none;html=1;entryX=0.5;entryY=1;entryDx=0;entryDy=0;entryPerimeter=0;" parent="1" source="5" target="3" edge="1">
                    <mxGeometry relative="1" as="geometry"/>
                </mxCell>
                <mxCell id="42" style="edgeStyle=none;html=1;entryX=0.051;entryY=0.567;entryDx=0;entryDy=0;entryPerimeter=0;" parent="1" target="3" edge="1">
                    <mxGeometry relative="1" as="geometry">
                        <mxPoint x="611.2" y="147.26677429770746" as="sourcePoint"/>
                    </mxGeometry>
                </mxCell>
                <mxCell id="45" value="Receive-Order" style="image;aspect=fixed;html=1;points=[];align=center;fontSize=12;image=img/lib/azure2/compute/Function_Apps.svg;" parent="1" vertex="1">
                    <mxGeometry x="550" y="120" width="61.2" height="54" as="geometry"/>
                </mxCell>
                <mxCell id="48" value="" style="image;aspect=fixed;html=1;points=[];align=center;fontSize=12;image=img/lib/azure2/integration/Logic_Apps.svg;" parent="1" vertex="1">
                    <mxGeometry x="544.2" y="228" width="67" height="52" as="geometry"/>
                </mxCell>
                <mxCell id="63" style="edgeStyle=none;html=1;entryX=0;entryY=0.5;entryDx=0;entryDy=0;" parent="1" source="49" target="62" edge="1">
                    <mxGeometry relative="1" as="geometry"/>
                </mxCell>
                <mxCell id="49" value="&lt;span style=&quot;color: rgb(0, 0, 0); font-size: 11px;&quot;&gt;Process Order To Erp&lt;/span&gt;" style="image;sketch=0;aspect=fixed;html=1;points=[];align=center;fontSize=12;image=img/lib/mscae/Service_Bus.svg;" parent="1" vertex="1">
                    <mxGeometry x="937" y="276" width="50" height="50" as="geometry"/>
                </mxCell>
                <mxCell id="50" style="edgeStyle=none;html=1;entryX=-0.047;entryY=0.636;entryDx=0;entryDy=0;entryPerimeter=0;" parent="1" source="5" target="49" edge="1">
                    <mxGeometry relative="1" as="geometry"/>
                </mxCell>
                <mxCell id="59" value="" style="shape=image;verticalLabelPosition=bottom;labelBackgroundColor=default;verticalAlign=top;aspect=fixed;imageAspect=0;image=data:image/png,iVBORw0KGgoAAAANSUhEUgAAAIsAAACPCAYAAADKiCjpAAAAAXNSR0IArs4c6QAAAARnQU1BAACxjwv8YQUAAAAJcEhZcwAADsMAAA7DAcdvqGQAAB3xSURBVHhe7Z3Zk+M6duY/kNpzqcqqrO3eut1Vtz1ue2KmvcSMo7309fJH+33mcR4m2g473DFe771dVbkrlZK4AjjzAFACQYCklFKmcka/CpWShwcgifMJBEEQZERE2LOnBYFt2LPHx14se1qzF8ue1uzFsqc1e7Hsac1eLHtasxfLntbsxbKnNXux7GnNXix7WrMXy57W7MWypzV7sexpDft/4a4zEUAgwDgSYgADM912AqZ3aff2rJknLRYCICXh8jbCP/77Jb5czyCIgOEAndMThMcHKipEpo4AI1i2HXod1fg02QGGMGDohuFCHASgEwCn3QA/GzC86AUIn5hinqxYiIB5nOHv/+0C//Afl5jM0kWACQGCXhe902cYfv0K4aBXjeyWYaZKoGo+pmu7w06Ab0cBfj5iGIW7WP+5ebJiSTKOX//LOf7Xb84QJdmiLmAAiAUAAazTweDNCQ5++gZhr4eHPlRa/FeGMYZBJ8TvDQm/fxBiGNoeu8mTbOBKIlxNYvzmhxvESaaqGQMGAmMMxAWy6ztk45ntsnWI3EIBACJCwgW+T4DrnCA9frvGkxRLlkt8upridp6oeBSNDCM+RbUvM458MoPk+VZblUTlTy2k2lpTAZxlhPSJqOXJiYUAzJMMn69mSDO+lIclhMUiEfgshojTqtM9WUUcpY/ek1wI3HBCLL2V0E7x5MQiJWE8S3B1FzUGSV0DEUSWg88iQMplw3NN1hKI06hW3OaEcS4hGzN8fJ6cWHIucHY9x3ia2JFYUFgXl7hcIL+NIHNueK1AW4HAJRCvEZCEOQduciCT9srd48mJZZ7kuLiNICQz5GD+rSj9fgVBxClEkpV82kDlvj4/Tj04jKUdU/lf54RIlN12kSclFkmEm2mC8/EMQPFTbD6tEACR5uCzGETtfsJbqUlcJikxzgi3fPevip6UWHIucHE7R5wKv0SWLdvlNwMkl8hnCWTOnbcBzLZIrUjMmqHkZxltv5o8U6lql7R2w4/PkxELETCPc3y5nCEXskWFYjsQxDyGiIoOPGNN2xhV/DxKqPi5UcIkCClxlUpEnNrvyyPwZMQiiXAzy3A9SyCL+rpoqphNl5rCFmmOfB5DCqlC3FSLwKWHiqFsasjPVXsRgDsO3ObALjddnoxYci7w6XKCaZTrm3NWzbEQjF2jYBFByQX4XQThORUtcAa+YnCafNgCsYkF4SKTyHe44fJkxKKugmJk3PztmVVLEfyisPX3QhMESEI+TyDtqyJTHE6BGEaHyUXrNhBUXlwCNxlhLpqcH48nIRYiwnia4maaNHSqmaJxwACZc/BpvIygMzYONThMPhrF4YQw4YTbvDqcYld4EmLJuMTFeI5plGmx2B8XLjuBcgE+TyCzvLKupAhzsSZ6dg2yslB0Iqavim4y2tkOuichlijh+PF6BiF9kasRTcmdASDwOAWfJ3qdI0/XJhysLAybUiuXICRwkRHmfDfVsvNikZJwPY1xPYmWMfTowlnbLP5cBkamGfg8BkkdlDVrkZVpkcE0J1xnBL6DDd2dF0vOJX57OUWUGneYUScYA7b4T6PSk1h20LXKyB/bdtSIowQREgGcJxK8hftDs/Nimac5zm4iCOEIqqMiqVKU+tKJJEFECUSc1dYkKOJsG9vQUIO4IUioG4vzHeyg22mxCEm4vI1xM030cIMadbjMpcI2Fwgi5+pU5LhXtFacTdZOCBARpoLUCDp75SOz02LhQuLyLkKcCzvyfuGYZlYYbBiIS4h5DOJi4XNvgaybQSktIZcMN6lEtk5eW2RnxUJEuJtn+HI9B2+8OrAVYgqkehoqWrI8SsGjBEQrVvlmcDciENMOCClxmRJmefUn8pjsrFgkAeNZgsuJCqa7hqjDJRyoaGiTSHOIWQw4TkUVfMFtS2txqRPunWC44xK71KG7s2JJc4HPN3PME7PzzA78/SApwSPVQVfbM1wb3Baskp4ASImUS5zFhGSH1LKzYpknOc7GsaO/wVdjNGHkQ/o/IuSzBCL2jPxvrAVqaFWLaMj4aASA61zdYNwVdlIsQkpcTWLcTGN7lcU6wtG+OgYy56rdIowblG2D7GKVtJZAbNNdJjDOCLxtfltmJ8XCBeH8NsI84aoCAHP9+CxM4bjEU9h0DoVmhEQ+jyFyoWyrBsasQZrSmgehXR0mvUIipQDXubojvQvsnFiIgLsow8VtDLG8qi2JoFKwTmqEY5qIIJNMPVfUFGyTNuIo8Oyww1RSDoFwnQhMcjVY67HZObFIIlxOElzfpZBFt1Qp5ksRFDUOfAW/wBKM6czYcjB3m/bBmiIxNFDWjnkAJSOBhMAdB8Y524nB3DsnlowLfLmZI8ocg7KdFUVbwbhQKUhINWwhz10bWNJWJFhxZ0q+5gIhlcBlLHbiEdedEgsRYRrl+DKOkOU1o1ErZxiztnH8ek3UvBfFgvoigohSPZjbYs32SO1+VFZUDAszFxLXubobXcnngdkpsUgCbuYp7qLccS/I84u3XazBUZXGcaXElUHkOXgUg0ho5xqBmBlaMa6E3PZbrLQMto/hFwngNnv854p2Siw5l/hyPUeU5B5p2MrwUHEzxaN1YPtLAp+nkJmnRqsEsRpbI74VX49nZbECEWIucZFK5I98VbQzYiFSHXHnt66OOB8NoinwuJWDS+BJCh5n1Ul/HLvjMHkC7zR6zRUIkCQxzoA5F49au+yMWISUuLpLcH4bV4PVSIvaBrab5cvUA/R8HukRdMwZUIdpFaPXXMH0k8BtJnCZkpoz75HYGbFkXOLLTYQ41aeBUkN0FdoJZ3kNtXQlLsEXI+jKQXHGuL3Ra65g+alFQkYMV8njDubeGbFM4ww/Xs2sEmVaNFo49fF34BeOGk9vryKINNUddMu4lWJcMZqGSpQrZicOPzsZSYkvkcCM0xo172bYCbFICYynGa6mqfcCZBF0f/wbsBPqDVnbk6mAiLPqCDo7elVDrdmJw9dh0nbCXDKMUwm5+sFvhJ0QS8o5Po1nyHLpKSoTI+hrl9lSNJWtEYFHiX7E1Y5esWCkMk2VzCwcvg6TGwK4VFdFWZue5i2wE2KZxxwXtwmE/WtuxHGaWllA1QQiziBibtRyjlA6TF4cvg6TH93nQ0QYpxIz8TgddI8uFiEJ57cxru+Kh77WjbqZrn165gia5EKNzzWHLaBtFaBx+DpMbsxeYz07OOn7ZpOccJVIiFV/Vxvg0cWScYEv4zmmsa72S7QPeomFXpobx+SwkxBqag7Ol5MyNEbYrQaHyY0pENNcWgJiTrhMHmc61EcVCwGYxjnObvU4W2+l4F3REp3WlY0u82VA1WWQTDKIKG8e/+tQg8PkxyOQSnrDcJEITB9h2EKgRrY/zkcKiatJgqtJXI2HK7D1K1pgpF3UOGaRL9sCIuNAliEgHVCbSjSdJjeOWsQpEHOFhgG4yyRuEgkhZaVMt/l51JolFxK/vZ4j41JPruMRgFcf3hUtsdMu/z4chPj2pI+jruFjRdRcrATZZh2BVFYARAQugYtEPvgIukcTCxFhnnJ8vomsLmw7gBbe1eYKp0MrGAMQMJweDfHzVyO86DHV22vsoieOfhw1U8VSGCorLEi1sy4TgbtM1SwPxaOJRUjg802Eu8g34MhlM6gVjfm9Avp2UK/D8PblEK8Oeng16KAXLIupdWhWrUnMbx+G35wD5ylhzWmg1+LRxJILgR8u54hyoc6JtgNgKMKrjAYXp9HDUmSjfhdfvzzAsBfgZZcwDJeXr420FQjqVhi4MiBCJhnOIoF1Jw1fh0cRCxHhdpbjYhIvZ550lEkVryqWOFe3SFdsmQEvDnt4cdRHGDAc9QK87IUIWE1ROWoR+I7FFXwfLh+dVuoOunEu7c1ujZoS2B4EhutZgknEVXlYtYNZnv5ytRLZQrBXLVxsw/JD+ur97ckIh/0uAGDUYXjRZ8u9MIVhCMTeX6oYvAdS9an76D8YEWYiwG1KeKiL6EcRS5IJnN3GSHgxKLsUzcWXSaXMnFj5uKhxYYzhaNjF6bMBOh1VNCFjOOkxHHerCbz7UzF4cCV2ZuoyEriUuEwE0ge6KnpwsRABsyTHp2s1eXEVHcmmnlfbUKEmcYHlwgC8PB7i1fEAgbYzAM+7DC/6waI31w7bAu8KB7afN23VWFRoUhKuUiB6oMHcDy6WYkTcJM49ExybGBFzuLYrIE9iE+3S7QZ4/ayHg0GntLrfCfCyC/RYAHLtszfQFq4KorBXqDo6mkWIOOEilisMRV2fBxdLyiW+v5wv54grYumIgcJwcNzrMcu/Wrwm5oaqGyMCjkd9fHN6iH63/IbLLgPeDAIcdpjqPGy3QYXLz5neabSbRmX0HHSfIoligOE2eVCxEIBplON8Ei9Hqpm44+igEI/b346NGzMxAwsCHA87eHE0QGDVHowBR90Az7q6y9tVu5hUY162Nxv9AnEwTiWm2fabuQ8rFgLO7xLczHI9gY79a9dBcJjcFKJx3yQ0Y+YvSDUat9cJ8e7FAY6HPdsBDMCww/BqEKIbqtcAO7E3VLsDZaNZg9SKxMqTpMCUM1yn23+u6EHFknGBi9uk4WUGDoU4TFUMtTiEg0p4ljAAB/0Qr44HCD0lEjDgpMswCpYzRwE1YrCXAadzozhMXH4ECAKuEolky4OiPEWzeYgI41mKL+O2j3o4ou0RQRXDyeFrxzboBDh9NsTpUd97imEAnvUZXvYDhMz9mAjgyNxjbC2Sqr6qSIGrlPS9Invl5ngwsQgJXN1luI35cmbrVriD5zOX0aLxiKyIQTcMcXo8wOGwa7uUGIQMJz2gVxrWUBfQqrG1SFBJ6oWIMOdMDVtonfnqPJhY4ozjh6sZoqS4ZHZEz4vpb3wcJne2ZpryVRUxhuNRF+9OhuhZV0E23YDhVT/AUS8AgtDSgqmYYgxIy7ZIOalLY0tsH/1JucB5TIi3eFX0IGIhAqYJx+U0hyhKYRFUb4RbUJOuVbZqFM3JQQ+vjvuLjjgfDMBxL8CzDgOj4tV71ch6RWFTTerH66tWSCJcp4TpFp9CexCxSCKc3ya4mam3tpeO2Qxq8Yuvj7CDUibV9B4zGEOv08GrZwMc9MsdcT5GHYbTPkMvXGbYqvYoMGuEOky/kq9jBamdmCQC18n2pkN9ELFwQTibJEhyUZKK95hY8Z8d3VXwpDfNRBj1Q7w+HqDbcAoqCBhw0g9xENYdgINK0Gtw+jmNCzMjQi6hHnHd0qlo62IhAiZxjrPbuHS4xd/Wb2TJojbwVQtt8aRlQBAEOD3q4+Sg5/JwwgAc9xhe9hgYW6EmacJbEKZRf3t8GSNcx3oEXXnVRti6WASp54LG86x+nK37+BWLZPXp66mm7XVDfPVyhONRtSOujmHI8HoYoh969sUTTCdeP8cKh8mEEWGaEy4SsZVT0dbFkmYC/36pBmUvj7S+tjDLunTMi2Rm28adhx+VhiHAQS/Eu5MRuno4QltCBrzoBzgMCcwcFFXZYQ/Og/MctcNUB5eEH6ccyRZm/lmtlFaEiDCJc/x4HdV0RTcH3VtWi2T+tD5YALw4GuD0WI2IW4WAAc96DCf9QF9B6U66JpwH4jR6zU1IAq5iuZU56LYqFknA+SRBXJxD7Xs4lRjZK8sOZvkVf6t8i7ytjyOPgk7A8PZkgGGvXcPWphcwnPYD9Jjzlmh5Bxc7ahuosrj0XYHCnwCQmsPlIt78qWirYsm4xOdxAi7MSSKsonWWtEnVwS4De3lBNamCMRwMevjqZLhyrVIQBsCrYYCDjiO9d4e2gCkUfciSgLO5QLphtWxNLAR1FXQ+SRxlZ/3qzUVH2Tc7qFkpnTAlDvMTMOD5QQeHwx64BHJBK30y/T0I1HDLAKQ2VKkVCoOxwmFaGUd60ySFnm1hw/eKmDSH128QLiR+83mKv/31Gbg9G4EXa1c8e0ZBCAq7oFANql6VgAEvj3r46mSEMNBnLA2RWi6+lbF8iaz+JEgJ3EmGiAWgwGy3+HbcNqyAJ63TTIROwPAXXw3ws2cdtOxCamRrYpnGHP/zny7w6x8mutD1+bk1DmdSQpH9A8hu31PLtIMx6Mc7HNupQR2KTkNAt8twcNxDp2tV0qtl68aRh8OksKsQxvDtcQe/fNfDcW8zJ5DN5OJgmmT4/ioyfrXLm3ftcJ92VK3Sq9hXhUjNDSOkuiPe7kOLNFKqAdN5ThD2szveiLaEqnk4TArfPQYCvsz5Rq+KtiIWSYSz2wzT1PW4XPmubzu0aBba2dThFyFo8aHiykUtq3+AlBJ5LkFFBX2fXSs25zBX8ImkgOm5XKLNzZ27FbEISfh0G0PIJjWsKhogEBJMOObYfwz0fnMu1ZOV6wbFIRJTquUVDSIpIAIQ4GIukDkfuVmdrYjluph50l7hxe4jsdcXMIAEgjxGkCf2ygfCOi0CEJzA8xVnNLDUYC5WcikE0pS/I5NxKnEdq7E192XjYpGS8MN1hNt5Me2XN/I11IuGCY4gm4M9tGAc+8PAIGUhFnutA0sNTnFgBYGgJhOSmOXARcQ38ojrxsUS5QK/HcdIvPeCFg2PFtg1TvEJwEgiTCMEeawKdNmS3g5MHY46ouW2iEFNsJPL8hOW9q/cbPaY8TVF0SQQO/EiEz+cgMtIIDJfYrsmGxULEXAzy3AxySB9B7xgVeHYMDASS8FIuX3BaMwjK2pPLiQ416cix6E7TH5R2LQQhQ8p1YSF40S03pyPzYoFwMUkxTTV7+xpzZqiYQyARJAnCLIIkKWXKm6eUtZqoYijOhWV2wbeH39d7WHT0s2FakMR4hy4jsW9B3NvVCwZF/jxRr0CZr2QrSMaNR42zFMEWawF81DofdU9vuapyBmWVUXS0tWmmDBQLyCXEl8iee+XRGxMLETALBW4nOVYPumxTvBhpFslvURY1DAbulSsoxJH/Yo6VbssA9XYDikwq6EGVxeFQFxXZIwxTFKJu1Teq89lY2LhUuL7ywh3MQdj9gPvqwTdRdv0hJCnCPNItWFapdkQTG0yy9S0Z43iKFhTHAU+gZgwEGYZ4fPsfsMWNiaWJJf4/iZCJvTzMmagFsJZp8YwaZOeEIgUYTYHRJtpPdZHlXuRPwNJguASgjdEZEM1SJNIim2QJAhi+DLjiO8xH+rGxHIzy/D5Nl12e0MJRu2vJZzFd13Q2+BJT4SAZ+jkESC4IdIN4MuGAWAMQpC+KrLW30MgaFmDAP7tEElcxQI38fpXRRsRiyTC5SzDLHXspS7d0pqSYEp/rIkrPYHxDL18jj70HPxbrGUKhO6gW0TEVSQr0kokcG9noR0iJCLETbL+q/M2IpY4E/g8TtQsGl7Ur1vVNkbQih990eHmqy0acaVlOB0E+G9f9fHNsy6CoNjGPfFlwVRkBJcQ92kc6OCuXJvUm0AkcTbjiHJ7TTs2IpZJlONimkNS+8vWQjT2xy8eWwh1KN8gCPDyuI8/fD/C33w7ws9Oumqink0IRqOKfZkfCxi4UG2XNnGGJYxagSyqifLHYaoa9Bx0kwy4y1S7clXuLRYuJD5PUkziYjjCKkGt4q95imxbCocxDHsB3jzr47DfxTfPu/jLD0P8zklHHfR9BeNJTvq0nOdUar+5qBWGyUIBLcxOYwFhnhEu57xhjhw39xZLnEv89iZFUjwzuWpQPSxrG+vYK8LxwXA47OGr50P0O+qRjXdHXfzVtyP859ddhExtYxOY+8e0gXMBYU0t0qr2KCgO3HAzTaXUTqML3UE3F4j56oOi7iUWImA8z/H5LkWluVLSyfqiqU3L4G7nMIYwYHg56uDkoLuoRIIAeHvUxa8+HOC/vO6hu6k2jA0DhCAIq/v/Pniz8a6wUY4ENSDqtvRav3bcTywgnN1luJnmYHrkWEXkpVjWBL6BctvGopS/2ni/G+Dd8wGOrGlKGQNODzr47uMB/vBdD/2ONWJ7FUrJ1II6djVsIc+lfovrijWJdq2Upcu3FocjEWYcuIrV6XIV7iWWjEt8miTwDYirHM9COHbjdVUcV1XKvMh71Avw8qhXmXkS0DMhjEL86sMBfvG6i8F9BFNC5cFUTMB1B11tTCqF5DQ54+7H4WikJ8lwHouVO+jWFgsBuI04Pt8kOhN/YXuPc6GV9YVj1zgEIAwYXh/38eqo79UAA3A8CPDdtwf4k/cDjLohqO5lDitAWrNS6t5c+8CtAjEXS65Oow+Hs8MEAAEkrucSd+lq7Za1S0dIwo/jBPNMLDugSkF3R8m5/6Vk9enrUel6HYbXx+0eTT3oBfiT9wP86fsBjvqBegh6jW1XC51BSnW1uDgFVQ68sqhw+PmxnJ0FXCUWEp+nYqW3oa0tliQX+OfzObLa+yD1Qfce0yJZfXo3DMfDLr4+GaDjm6fUgAEY9QL80dd9/Ok3AxwPQrBgne2Wj6V4qyvP3R10zmN3Gl14FNEqLQAi5ELiy4wjqY1fmebS9HAzz3E5zdUt78ayLRzcjuahl4pgkcQYUulIbxIEwOlxX7dX7LVumK5h/virPv78mz6eD8L2bZiKmzIUZtX9TyDpOD64DtqFo3RsU016skdtatttQupekZ3Aw1piEZLweZwizqUuUx3E5lhqmh29ZVCIx5UHY+iFAd4976tG64oMOgH+4F0ff/aTPl6OArC2gjEo9ld9M0gicK6HLRQrvAdn43BymFyY4nDBAMwzgS/THKJlB93qJWrMjpBzc3YEGKIpPu6YLjEd/I7O8lkkMdMSDgch3hz3EbY4BbnodwL84u0A330Y4tUo1G2YBiq7rQ1MRY0LfSqqHIQLS0kriKtJICUI4BK4nAskLe8VtSiJMkTANJU4n7UZK2IIoF4PBn4nb7npJAFTV0HPGyY/bqIXMvz+6wG++zjCu8NA3YBcgWLf1Ldq6IralqTzqCqLdbQSCMqbCRgwTvRLIlqkX1ksQkp8Hse4i4VxCmrCVEqbGgfVNA7s4u13Q7x9PsCo33wV1EQ3AH73tIe/+jjC++OO3m/3fpSwXIoOOs5d94rsI/DrxsZuh9Tiy5MxRBz4PBet3le0slhSTvins7nKfJF/i0KsoNP4tWDhd1S7wXA0DPH++RAd49W696EbMnz7sodffRjhw0lHzdnfhF3meiYOUZyKvJFzm1w0isOkzpfUZMvf32RIW1wVrVSqRMBdwvHp1vVoan0tUKbwMdK0Tu5yZAgChtPDHk6Pl/eCNkEnYPh40sXf/GyEjy+6CANPP4zDhMWeqmELUjqq+xrtmLSuRdA+TxBAxDBOJCZp8wP0q4kFwCTmLQbPuwLahOHbOplyJCL0uwG+Phmiv2bDto4wYHh/3MN3Px3iP5320PPdHiiZ9L4VHzKeUmkbTEMkjayQZ9mPwCUwSZuf1V6xZIv5SXSmpiYcZado5aQx/OyrKW9SBsYYDnsh3h73dIfa5mEMeP+si7/+doifn3YRBp4rpdK+qj8KXcmWwVyrFmmD7av3i/RbW2oKGVhVLEz3jnY7nhuBLYPb4GBgZejJPwwY3jzv4/mo/UzZ68AY8Oqggz/7yRD/9U0H3rsJ1lUyQe1v6PE3xVErkCLY5seH7Vf42uWn59g7HizfLutjNbEw4MWog4+nI3tNNYK22bkjtoPTycDy1QOYDocdfHg5xMEGroKaYABeH3bwq5+O8Is3PfS7jjZMaVHd4OyEDGFovO63jTjgCHYdPt+a4mUA3hx28HIYblYsADDsBfjlx2d4c9x1n7dde1RQs2o9Agz7IX7+9hAfTtefpnRViiEOv/zJCH/wto+DvrsNU8QtDBj6/Q5CPX17o0AK2vqhxre6WwsYYzgZBPijt32MukGdK4A1JyCUBPzrZYT/8X/GuIlycP1gmR9rZa2vjds5AMNhP8Tvvj3Af//4TI2Is522DAGYZxL/+1OMvztLMYmFGjGod5lpoQz7IXo9Xau4D6dKWz8Yvq0LQM1m+XwQ4o/f9vHxpOt9N6TJWmKB3r9pwvHP5xE+32aq30W/Do6sd062onEvliXCGOGgH+J3Xh3g/Yu+eiPqI5JLwpc7jn+7znCjp7ZgTAml1wkWNUotNcdPlg6K/Cvf2q/iby0HDHh90MGH5x0c9ZtrlIK1xVJAi8bcvbJZCwb1GpddgHRZPBWY/m+V4ru3WPb8/8Pj1t97nhR7sexpzV4se1qzF8ue1uzFsqc1e7Hsac1eLHtasxfLntbsxbKnNXux7GnNXix7WrMXy57W7MWypzV7sexpzf8FlMLUCq3KV/0AAAAASUVORK5CYII=;" parent="1" vertex="1">
                    <mxGeometry x="200" y="-10" width="68.04" height="70" as="geometry"/>
                </mxCell>
                <mxCell id="60" value="" style="shape=image;verticalLabelPosition=bottom;labelBackgroundColor=default;verticalAlign=top;aspect=fixed;imageAspect=0;image=data:image/png,iVBORw0KGgoAAAANSUhEUgAAAKYAAACWCAYAAABU8vPaAAAAAXNSR0IArs4c6QAAAARnQU1BAACxjwv8YQUAAAAJcEhZcwAADsMAAA7DAcdvqGQAACwbSURBVHhe7X1pkB7Hed7TPTPfubtY7OIgsCBAUBRBkAQv8RIPy6IOylbZkuyonNhlpyrluMpJxf9cZcdlV5KKk1Qljh2nEilHlcpWSrblkmXKkeREoiiSMm0eIcBbPESCuI/FHtjjO2a63/x43+7p+XYXWACL/XaBecjGHH3Nt/PMe3VPjyIiQokSawy690SJEmsBJTFLrEmUxCyxJqGuVhuTJIF4qxSfV5JK9BdXDTEJgCXAApixhMMdi/e7wERm0bbAQKSwJVbYVVHYUdGoakCrkqj9wlVBzJYlvDJv8YNZiwNt4FjXYjqzsDoCgp+vACRksbESYVdF4Z468OEBjT31qLR5VhlXNDENAS/PW/yXU1280VXopgaWrFffS0EBgCJEUYx6pPBQHfjVayrYXtElQVcJVyQxLQEHOxZ/dibFd84anDWAtWZJNtJS6poZiiiOsD0GPrcxxk9tjDESq8XLl1gxXHHENAS8Pm/wO8e6ONw2MMYun0TKeUSLI0kS3NdQ+NfXVjAY6+W3W+KCcUUR0xDw3ekUf3Aiw8lOCrLe914ZKAWlI9zciPGb2xPsbZS25+XCFUNMAvD8TIbfPpridKsDSwsFYO9xeM5JP5e/2Hm3r5XC3oEK/nB3DRtLtX5ZcEUQ0wJ4p2Xw6wfbONxKYVfhJymtcc9AhN+9roHNSSk3VxpXxF90OiP83uEWDrVSGGNA1i6asMi5i823WYYXZi3+9FQX2eV/Dq46rHtiWgBPTnZxYDaDTTOJortkC8e0aF5eppjv8pbKtzDdLr55poODbdN7WSUuEeuemNOpxZeOzaHdTUE2lJbL3aclzhelZfF8nn+yneG/HplFtgrmw9WEdU1MC+Abp9o43CGQi1MSSXID4m4/PN+bXyyjCdhR0bi+FuH6WoTdVY2aWryuyTI8PZnizblsgWNV4uKxrp2fmczin7wxjZfOdkCW45Xn+jHLza9HCl+4ZRS76jEAICXCb745if1nu7CLNBAnMX5lex3/+NpBxKWLviJYtxKTABxuGxztWFBmFrEBF6bl5JMlKCIMxQqjFY1NFY3RRCMiLFnfdFO8OJOhYxdhbYmLwvolJgHvzHYx0+4uYgtefGLPmxbEJokWlg3Te3Mp5jLbU6vExWLdEhMADrYMOlnGpAlSQwOjifKpqWlBGbI9x5Kstezc9PTlnaTeOpbrTLS6ONQq7cyVwrolJgE4NJ+CjEg62ZrM4hd3DOKP79qKP75rK/7orq34lV0bfOiHjCSSrTsnW5CEh3oZRkxM30aPxOwYi+PtLJxFV+ISsG6JCQCTnUxIKfajYfIMRsDORsKpnmAwVmxDmsA2dPs9Wy5jF7hJTMqgDVOsS5Zwop0u4HOJi8O6JmY7c+rUsKQj6yf+qmBsW0GknZQhMqyuKU+cZ1gi0iK2Iglhgzq99TvlENCKYV0T0xjDEkw8ZvaaeSJwAeTeq+AymoCaUqhLqnobUghoFghMIaaUWSwZQqR6K5W4WKxrYpIExJ2d58ayew09FpR5uV31GL935zX4/Tu34Q/u3IZ/cetWNBTysXBmaE8b4kD12JY+kcVQVM7RXCmsY2IK0YwBJJExuQNTAKt7MgbWGAxFCg9vbuLHtjTx8JYm7httIIYQTCaBLIAV5yjor5Ayg+31uCTmCqHvxCTRkuT2l5F8XXF2bJBYegWFwJKVjMnzhXjODiWS4LqbmWQsS+OwjZ5+evtsaoWxepwbtiUuCX0l5tku4ZmjGZ46nOLpQymePizpUIqnDsk52X/qUIqnDqd45kgXs10hDTmJyeEiDhmZBaocFiztnNRbRCIWQkdm4WwhIictpX7QJ6zF1nqELbWk5OUKoW/EJAAnZy2+9LrFFw908IUDbXxhv6QDbXzxAG/d/hcPtPHF/R38j5faGG8xsdwsn4K0XETa5WrfAlJnYT6bAV6i9jYhNqq1FtYU+wQRPthMUItKWq4U+kZMB2MJmTHIjD1/shbhcDSrX2f75YHvBRKRpJyQaiFxA8fHScHeMqG0dYSUrYLGg5uaSHRJzJVC34l5LvTalAvgCSJxSSf1eitJDJIMxyl7iUvENiSTdzGJGnj14mQ5ZwuWMBIRHt4+BO3WmSlxyegrMQkEawmWzp2M27ecfP1AYjJB+RhkYYJ6jngun0zeriES5yi3HclYzrfShouRBqqeHS9CohR+ee9WbK2X9uVKom/zMQnA2xMZ/tXfpZidb/dmLwqlFGox8G8+MoidGzQ+/+3X8dL4LGwg4YiAH9+xAXduHvTHr03O4buHJn2Z7c0KPn/DFr+Q1kzX4CtvnURLZgdVtMbP3bgZI1UmW0aEx94dx5HZTkGCK6Vwz9Yh/PdHbsSGCs/dLLEy6Csx3zqT4V/+XXfZxAQU6onCv/txJubf++areOn0DCwVp6kZK1JSjrUCosD+IyJkBLhJ6UoBkVKeqACQSRsOkebXdh0IwGCthv/00G58dOdIKS1XGP1T5XLTrRWVKWo6PO5NrM5z5yVXq3nw3BoDRRYaFpEkRVbyeEvWIgrKaBlvd/WtMdCU149goZzjJEH8ehTh12/fjgfHhktSXgb0j5jCzV5Cuv1Fk+m1MYUojqDnSS5UdDHJOi+cCNUkwj+8aSv+/k1bUY0u7E9I7hUjArKM0GlbzM8ZzM0YzJ7NcHY6w9mpDLNnM8zNGMzPGXTaFibjcXpX90pH/1Q5AW+eyfBbT7cwO9/JRei5oBQaicJ/+PgGXDcc4We+vh8HTk6vygIHEJtyQ72Kf3bntfiFm7ejmUS9RZYEEWAywuREionxFHMzGaYmUpw5nWJmOkWnbdHpWHQ7/FuqVY1KVaFa0xjcEGN0cwXDIwkGBmNsHE0wsimBjormx5WEvhLzh2dS/POnWsu3MRXbmL//iWFcNxzhc197AQdOnvXEdPeo8IMoz1BhXnDe5bnTHkGZSGtsGajhtz98PT79ga0Fm3UpGEPodiyOH+ngyPttHD/cxeGD8zj6fhvtVgQgAlGWT0ZBIA6VgoLirVJQKgZgUKsbbN9Zw87ddWy/toqxXTVs31FDUlWIrqAAf9+J+RtPtjATELNAnh4opdCIFX7/0WHsHo7w2T9/HgdOTrOavixQ0JHGQBLhc3u24Rf37cANG5uIz0FKIqDbsZgYT/HGyzN44+UWTh7tYuJMB2lXQk+0RJB/GWCSamilkFQVRkZruGYswd7bG7hp3wBGNiWo1i7MvFiL6Csx3xgXYraWSUwAtVjhDx/diN0bI3z2z57DgZNTPly0qNQLcL62WUoBCgrVSoKhWgUPbB/CP717Nz44MgCtl15Ai8RmPHW8g2efmsIPvjON+XmLLEuXJKFry/VdBNchKC9FF2+FyRpHCRoDGg9+bAPu/7FhbN1eRRSvX1XfP2ICeHcyw398ro12yq8khH9Dd1G9ZKtqwm8+OISxoQi/8LUX8Orps+ygLFF+sePwB7v8WEdoViLsHhnAnpEm7to2jJs3D2LHUB2V8zg4RMDh91p46v+ewSsvzmDidMYrFwdQjvSyhV/fnXcW4w8hD2kR8vAVgTu1wALSa60xsinGvg8N4eFPjGDn7vq6JGffiAn5A1v+qxfOnevvqNxNVMBkq4v0It7lJiKo4G4pAhqVCLU4KpLGkegcmJ0x+P5fj+O7fzWOuTkjnrPEVZWCVnn805Ozp+3wWhaDI6L7U5Hbd6Na4TEAQEFrQnMwxic/sxk//ugo6o1oXRG0r8TsGsL4vIUJyOWIQSTazTFVtlopbGpoJJHCRMtg3k2BWw4UMFzVGKjoJaXUckDE8df33p7HX3/9NN54eQ6dNr/y64jHX7xgx0WrxSRmTtLitbgf6wgpfYKlpvzfQ06ClfPWE5jYJKlF2HtbE5/63GbsvqGxbjz5vhGTALw5nuI3vj+LucDGPB/qscYffGoE1w0n+Ld/cxZPvd8qDEmeC1Gk8Y9ua+Lztwxc9M0hArLU4sVnp/HYV07hzCmDzKSedE5C8j6Tj49DSakARVCQVzHkWpiSTKjem5ITEVwqJKKodfTMMXBloijByGaNz/38Nbjr/iEklXObJmsB/btC4mG/sx3CVMsuL7UJ022DTCTsXNdiqr1IuSXSZMti/hLfZJw9m+Fbf3EaX/3SSYyfymBMCq0UIq2QaIVYa0RaI9YaseLjWKv8nNaItEKsIzmvEEty5/OyCrFSiIJ2kijfj4M+E8V9FPth792aFGdOGfz5H53At/7iFGbPZr0/a82hf8SUp99YW0i257g3zzoxINLFGMmX4creOsX6l0bKdsvgL//kBL71tTOYnuzCmgzaE0ojEhJFQkomSXCsgjKQ7YKEIHHbYb6WFLn+XB+RexDcNeRJawWiDFMTXXz7axP42v86zqbHpf05Liv6SkzIWLm8WevXEQiPWS0V89zf0w3RWbH5zlXXHecOwvJBBJydyvDlLxzB33xvCibLoICiVHMEjBxRnBTMCeSIkktRIU5APCftQqL7so7YnnwBOZUjp+atnMvJyt8oyrIMzzwxhS9/8ShmptL8j7nG0FdiEoK5lksmRzAZLw+8U3ve+kFdmV95oVKCJGD+2J+cwHM/mEKWmqJEUqwyHSkjrZEEqrSXQC7pHrXLqj1asnyknPoOVfUS5AzLRHndSFS7ySyefWoKj/3pKXS6y7PPVxt9JSbEePekO1+Scr6ulfq95ZZKFyEtWy2Db3z1JH7w+CRAInkCCehsPWcLRkpBA9BgRyiXbk5Nu63bdxKXp9ZFSiEC1/Nq2UvNXIrqII+lLjtZYbsFyeofJP4NIMIzT0zgsT85gXZr4ct3/UZfienCLm6m+PmSlXIFG9PNMl+kfG+yosqXAyKCMYRnHp/Ad75xBtaQV7lMGASqNZCCSvmty4+duvbSrajOtdbQSpJrS47Ddn1fbj8gn5eg0qeWPp1K7zUDtNIwKeHx/z2Bp787AXOJTuFKo6/EhEhMQwunvPXOxfQEXERi+vma56oradkykxRe2z+D731rArA5KUMihOqxN99LKK2hQ+fIkSeQXt4WdNKz5zgWIi0g5xIPwqKSUq4lt4c5pEWW8L1vTuD1l2YKf9t+o6/EJPfOj6jZUPKFtmFoI4bqmIJz56ubp56LWAREwJH3W/jqHx3HxDgvoe1vbg8hXKjIqVB37KWnkClX64Fk05pnxgfkcZIvtyFzcyG/htBECK+F2wqdqcJDE9aTpABMnMrwtS+fwNH32xdsg18u9JWYIORECqRdLjk5xBOS15JzfXIve1l1JX85AjNLLR7/5jjOHCeQyQo30994TxAtoR8h6RLJSczQFuWUS0xHHt4PbEXXX0DGsHyknF2aS9X8GuVBcWZB2JbkAxYnjhg88e0zyNK14QxpN6TVj+QJKTPTFyYJJ4VJ3nAk4tEOcyF1nTpf5FpcMobw8otn8dJz8yDqFiWM93bzGx05KeVvtpOErnwu1SKxFwsetbMxpZ7bd8funCNx2JbvIyB+3n+PiRGJcxTk54QHiFIceG4er7w4IwuI9Tf1T2IqoBrxRFgLISmC5I4dgf2+F5ig8Py56vqHoPciFuLMqQ4e+8pJzM+l4oCIBAo8X59kuNET1+fl3ndODkeuoA1fv6fdQmK1lrfD6tj1q5FfG5/vkbSuHgXtua2T+kpDQ2N+pou//MoJjJ/u9l2l942YCsDujRXcv00jTmrQSRU65hTF1fw4qSIK9lP5i/G4svbnXd3CsasrScUxbM8blSGIgBeeOYuTx7oS8uGwjg/NiB0Xjon7pF1QPbBHtfaBdl9+wb4Sb1zqFM5zHkvVoKx/WJzUdPFL1y8nV0f19KWCiELeHk+aOX28i+d/MAXqMzOVtctxBy4fOhnh1VMdTLft+SdWEMf67tpeQ7Oi8drJDk7PX0AMjoDrRxLsGk56cwAAM9MZ/vPvHsSRdzsigZzaDokpJJQ4pVYstWoNjWuui7F1Z4LBESZkZ85i6gRh4qjB9EnLEzj8LCOA5x/1zi4qguQf5/JxtExsbAtEVWDLLo2RHRGawwoqAuanLU4fzXDivQzTEybQIvLyH/FSO4ZsHtEgQmZZ02zfWcGv/fZuDA337135vhMT/o+9PIQ38kLqOfj5nD0whvDsU1P4yn87DsqoaBtGPJwXaQ0Ntsm0EFUBGNkS4YHPNLHthohfa5AOFACTATNnLI790OD1J1N05whacwGlFP+AJa7JgcmZj3gR8RuTo9dq7PtkBZuu1ag2VK5+FWBSwsRxg/2Pt/H2/g6Pklk2hYwQ0xL5eQbGEjLZhwJ+4Ve3496HhxH36Ytaa4KYfQcB8/MG//633sWpo11oKMQRS8c8OB7Ya7KNI43rbk5w/081sHErT8R15OB9nlSqhCgnf2Tw2nczTB6lwjS4XqjcjAYgEjKcI6AIY3sj3PJIguFtbI0Jn6Q8oBT3PT9NePmpFl56so1OhyfB2HDgQaSlsVSQoGO7q/i139mNgcHlvwm6kuibjbmWYInw/o9aGD/OMcuCMwEXjgnsPlHpOz6Q4OGfbWLkmnx2uFKAjgCtg0nBBOhIYeymGHd+uoKhUWcSSOzRmQcSr3T77nxog2qlsO2GGPf+TBUbt0UAKcA5NpFCFLu3JTVgFZqDGvd8qoF9D9WQVILfIL+JHzL3W/m8UsCJIxaH3p3vmxNUElPU7UvPzYLIyE0TB8eRVGaiK+cdA9gwGuH+n25gw2gk+hWwGTD+vsHbf5viR89nmDpmQfKhAQWeDTW6U+PGh2LECffj+nPEdxOMHUm8AwYFRQqDowq3fDxGpa7EQeHFvU69l+HV73Xx3GNtvPZkB5PHMljDI11xDNzzaB0791TAgpTbZakt/QYPpFYKJsvw8nOzMKY/zCyJCeDsVIoj73WhwEOPYVJQUGJTOqKQBa7fV8GWnRGMIRCxqn758S6+96U2XvhGF89/vYsnv9TBj57PCitoKAVs26ux+boob1OGLQt9B569O1YArt0XYXiblngfP1RvPJni6S938cp3unjrmQz7v93Fd/9nCwdfSWGl70pVYe+9VRC5B0376IJ3ypTyXjpAOHIwxfRE2vvnWhVc9cQkAsZPdTF+sp1LKX/DckL6fc2Sa+feBLBsKxIR3n4+w5s/SGHa8Oq1Ow/88AmD0+8VA6jNYWD0WoU46iHjIimUoI2hCCM7NSLnLBMwddTiR88a2A6gSB4k6fvV76WYm+K+LQGj2yNs3sYfMCiEkhbpL1IKE6c7OHWiPzHNkphEOH08xfyMkxx5CIhvlKg+d+Og0ByMMDgSgaBBUEg7Cgf3pzAZoJzqF7WftYEfft/AWmY6QcGSxsBmjSgRIogT5CQY99X7YCg0Nyo0hjWIXDsK771gkLWC+v4FOIXZcYsjr2cwlj2qSl1j664ECsWgPl+rC+Tn/bZmCeMn+vMaxlVPzNmzBu++OZ/bj3KjnNesIbamJy3QGFLQEfi9XxCyLuHsKX6JTCEgN2tEzJwkZB0eamP3mlCp5c5V3pd46gDY+uNr4SMgqQJxNW+HiNCdc3Zifo2uDQWF9qwsxgV2yhobXGxKyO9+m7sOr9r5Ut97ax5zM6tPzquemPOzBsfeb0NBQjiBZAwlqCOpUgpxzN60U3Fk2fFhcoQ3Wtoihc4MFyYJ++gk99wdiXNSOKLl7Wmwx60lrujDUt5mlHqBilYK+XpGxNI8juVhU0XHx0lbrymgALI49n4bc7Or/37QVU/Mdstg4rSBUrwIgpdQ/uYyY0IJmrWJ1SPfb0QJUB+UMo7E4rS4NpzzAyFVSHwEkrKQgj6dNHN9+nZUbi/6ByiQhM2NmmOaAKwhpO3ig5Nfc96BqwsAE6cztOeXMclghXHVE3N+zgK25sngb7ASQjg1CbEfFTA3ZdGddyxjYl5zQyyhpWLYxalnkZeFvh3pXJ95yqWkuxZPGcrFpfBUpHpIKK7X3Kix+XoNpbnrrEOYPmULMdawn9wcEOICIFND60KGfVcIVzUxrSFMnZFlAANp5ySIu+GQc05lghROvmtE3SlEicIN98fYsEXzSheB9AEfCaGYWO5bqE5ihQ5L/mA4goT7Qm1phyyrctePqxdphfqQxi0fS9AYYmcJAGYnCKffs3nwXsjspLH77WxWyKNAFpPjHBNdTVzVxCQCWnOG7UuREI5P7uYocPDbEVWJrXfo5QztOV5OkCwwtFXjvn9QwXV3awyMKlQq7KwkVSCuCKmo+DWXuAIkVV5OMKkqxEHKz3MblZriMJGYBNY5NHFYH6hvULjunggf/vkEYzfzTCJhMw69ksGkbjg0IL0QEoF05oeS/xhzs2ZZM/9XElf1WHmWEr7zl+N44rFZWNNdMKmX5z7yRFzt3x+XMfREYc8DCW59JGEPneUirAF/IhBCCCcVNeXiV/KKXxdc6jaIxAU40O9sAyE6f1k4LE9ATzmlgONvGTz3WAdzU/mnYjKShSAIsh/OOOIJHSqq4KM/PYCPf2Z0VZeWWb2e1iCIgLTLIogFBpMIgVpTWPzYZsDBFwwO/j8DQHmCKAWoCNCxpIigI5kZZCV0I6MxOiwnHvfClJeBloUbZDY+EQGaoOIwMYGdJAcBZw5bvPR/UrTPhpNHRGo6iek1Qq413B+p213ko16XGVc3MUFIU7EvRbwsuEn+2JGSt1oBaRv44ZMZ3nwyy52hvPF8t5BFPpFz1fNTi6T8dQNuaJF+FktKIesQTrxlsf+vUsyetoHszR+y4u+WPP97+UyW8vDnauKqJqYCx/nEvBKD390wIaHLk2MQB9LdYWceePtvDA48luHIyxbTxwntaaA7X0zWSLxTJKbpAuk8p+48oTtPSCWFx65+Og9knbwN905T2uayHUntGcLMacKJH1q8/h2D/Y9lmDnl1nQU0oHJm/9u/4Nzpyf4m8Sx2KqriKvexnz8sTN44huzINP19iTbmG4OZj6LPXbT1PyE4cCTFqdoaJNGbQAy3Mg3NtLAdQ8D1SExFTQw+RZw5s3i5N4CSJ4GKUAEDGwFtt5BiCpMLGuBw88SZsdFdYNNjE6LMHvGoj1HIJW/8+TmXrrkJgb7ycKyyFkWzM1UUQWPfGYAH/2pUSSV3ou8fLi6JaYCag0NpfjP4P7sHF1h2eLO5Vv5L7hHCmzXgRRmTxPOvAecfpsw/hYw/hbhzDtA2lIgk0vO+Qlg4l1g4h2FyXcUpt5WmAq37wCTbwOTkj/xjsLZY4BJwd/CNPx5lunDwJm38r7Gf0Q4e4yQtdmGddfprlk56e+u2/+28Bfm0Eqj3lz91YivbmJqoDHA088A8Exxr7Z7C/s7XFjNQwVWnx/W1EIATbyvRQUb4o+jGnZM2NniMvB1gq0kzuNerAWMdc6WXKwrF9bvuX6+5vw3+B0qnBAdn2+UUkzMVWbKKne3tqC1wtBwzG8OLsLF5do4vfUWA1mCtQrGKljDgfkQ4ZGz8xaAWFqS4SFRngi8vP4Zy/1FORQUNmzkUa3VxFVNTIAlZlRpi4hxjg/fhIWK3EkSl59nK8CLqbw0twYA1irv+JDEOZWQ0NeVkRs+dOddC7z8tTVMbCvqHOREm5T1+8WrzP+V0adAA3B/bit/A6WglEZS76IxsPo0Wf0e1xgaTY1tOysyuY0JI+7GAgnjiNJ73kNOU3CjHaxlSecI5cjpyju4XgnSV0+mFUlpM/BrG0I03pPJIsK2hVe58IxHcDFuV2mFsV1VNAdLG3PVMTgcY/dNDUDJOzQEf3c8QQCOJ/JGjhdwBgisz7wcxwApI5iUYFOCydyy225upXjVQbyS910TBAW2S21GMBk7UcZI0F4uwLXl6ocX7Mrw78j7dch/Vt6GVhrX721gsA/vl1/1xEwqGjt2V5FUnHoLGSfkKVBwISE9H5xeDPLcKUckY/g9HbKS2SOKeoUkn1QgpUBgiUsZh4Vsxn0uJcxI5f2j0K47KQ9b7+8jrlutA9t2VlbdvkRJTObF1rEqto7V5NaFapD3/dfJgvuX7/Ie57mz7laLtATEWWEymUwC7YF0LLaW73OzXA4yIdkYgsl4ATBnEviyIaQaQS7CzZrLs4MDuZa8NraO1bDt2krvs7MquOqJCQAbRmJce0PCkimklQta90gWR8JQDbvz5PNDIrNd6aSczVgFc44rm6tybsOxKicLyaelw+RUub8G9zAEx34ratz358rLdRAXBAAopbHzxgSDG1dfjaMkJiOKFPbd24SOWJEWVDKh4GDkN1qOyWUHNzw8BkBQnkiZIdiMV55zbQAiul3qOXbqnUi8cid107yf/BLdtbta+ehSPrlPxiPD31YIaRKSqsKt9w72RY2jJCZDaWBsdw17bm94O9NLP0Do6CRTTiiX74Wbo4ncYZ8P9qKzVMbIU5keV2gjl5AIpacshkVuvfqMuJ2MkGUcG+Vy0p5zbsDrFOWS09Ob/w+cIPcbuD5f+50PDWDL9qQvahwlMXMkFY1HPjsiK1yI+pYbzjdYbqYQx0peeN7lhcdErG6zjJB1LbKUvXOTuTYCcvQQtTcZA2RdkjZkeNLylLS8XP4lkEJ997AV8vMHx5UDgOYGjQcfHV7V+Ze96F/PawxKAZu3V7DnjiZLzfCmSZmcQE4KBTdcFhWwsnUSyJU2GUtNVum580OUS7ZwgoUjKEtL7seS2JapkNNJTN9TcG1yTf68J6e0XSCl22dG3HL3AIZH+yctURKziKSicMcDg6gN8FKC7oaCeN1Igrt7TlLKDc9NUC914G82Z9pUeVWedSXIHhBisWR78wnIMoUsA0yqkKWOlI5svHXzxUISInhY8vYCUsp0vsENET70kSFEfVp+0KEkZg+uu6mGW+9rIo5lfSC4jxDwjbUykcJJO4IEuQP1aB2RvUQkZJkVNQyYrjhAIi1DSemTWwdd1rS04PCQ6RLSLiHtWpjUwhp+NcL3FV6Lu3aRtuE15qTNf0elrnHPI0PYtqvaV2mJkpgLEScan/z8KDbviKGUDiRWfqPljQUvjdw+fDkhl89XsJmCSdkBylJe2de1y/WCNnolpTtnua4V+zLr8hi8u7YC4eTYtRe260ibkxPQOsbY9RXc/4kNfSclSmIuhFL85uKHH92ASl0DUGI3OikUSh4nbXolpiNSLgGzjEQFy9ap8h5nxTgJ1/ORA5JxcrYxmZgmzevm3zdyEr54nY6MbB64DylwWSiNwY0aDzy6AZXa2qDE2riKNQatFW65dxB3fWQAURzln2MhCWj33Pgw31h+pdfCrd7L4+JZV1LKWyOfhXGE8uQJ+nFtc3vyZmPKqjxL+X0l93kZf33BQ7IwWX89vh8i6Jhwz8cHcP2tjTUhLVESc2lEEXD/J4Zw3d4qtBaVTrmUsc5jDuw4lp65TcpkAAgcJsq6bGemHbExXR0pF3r1obngCESWpWXWBdIOO1HGvXkZ9O1Tj1kQHntSRgk/hD82VHi7uN8oiXkODG6M8cBPDiKpRWwnhqSUm09iwHkPOlDPnswEZAZIuwppV2zM83rlOdFdu8YyKU2QrHxpwpMtuAZfv0BWJ1nZbqkNEu5/dBC1Rv5Rg7WAkpjngFLAjg/U8Imf24CkGgU3OFxknz87SBSoc8nnxQREBXdYYqZdYnJlwcL8RPKJwTBJX64NYvXvPPI0teyZGx7e9N/SdKrdXxO/aOavN7B7m0MxPv1Lm7BlrD8TNc6FkpjnQZwo3HpfEx+4rQJSHLbJQzxFtZ47Hrn0cuqTPXL2zM0CG7OowgvtBe0ap8pdPDSVWUu+T5a0Yd+u//DaCDytbe+9ddx4W11WEllbKIm5DCRVjQd+Yhi1AbY1WYr1fKCVCKbHYw+3PCTJkjPtuHFulx9KyDzlnzsRCW0JWcpSlx0gmRkvbfg+EVybk7YkDo+o/Y1bY9z7sSG/3uZaQ0nMZUApYGx3FR/72WEkVc2SyHnflj1dYy07J44MjlyWy3jnJxxODMuRDZKYA75tKWsCcqeEtCPrDAmxc9OB6xqb5xNZ8LJKhEpd4bO/vBnDmxf/QtxaQEnMC8AdDw3hxjvqUEp7AhjvCBW/OBY6SJbyWUGZiz+aYn4oKYs2piMw25OZm4uZ8pg7Ge7bEkcGCm0S/Of5uB0AULjjIwPYfl2VF95ao1jDl7b2oLTCfZ8cwuCoBlTkPWHnAOVECMNAQtpgkrCR2eeetI7IC+zK3DZ0RDeZjLmnYHPAkxIwhTo5KYkIVlYQ2TSW4L6Pb4BaS7GhRXBVLxFzMbAGePHps3j8z6fRnktleRhZmTf4WJVfoVdWJEbilpiW93EtoGxOjiW9Yrk7BJksovkEyT82y50tT0IJxvODkTtsw5sS/MQvbcSNtzULXaxFlBLzAqEj4K6HB/GBfRVEUcJSDIFtKZLSORwZWWSiyo0Rz9rkKjp0WiwFDpFT606iijrmZWZ4xCfL2B7NfLn8g6WOoK7NpFLDzffVccOta5+UKIl5cVBa4Z5HhtAYViBob785JyUrOC2igo28RCakyuOJIu1CIvq8kLD5B0hDcnvHKCBxbyIVYeM1GW5/YHBN25Uh1sllri0oBey4voa7P9qAVS4ALtLLESKQYnxOnBfDW2NZ0mWW8309Se5cmAzxO0OZEDzzRM0lpSNpeKwigwd/chibtlV6f8qaRUnMi0QUK9z24UHsurGRS0WnziWO6Jbys0KUTBwjXlY6JzOHd4RgPsSUH/vRG0teEru+cikZtOVJyYH0PXcO4IP7GmtqLPx8KIl5CdgwkmDPnTWoJIJxoy+eVCRrmguJhCievAViuXJ5ec7PCW+sk5rO0QkkY1jXhanEvoyTGLfe10CtHq2psfDzoSTmJUApYO+dDWzYGMOKWmYpmQe6WWWLurYWxuSL72eGF0nNrD138mpbjqUt36YlGBME1QOpOrId2L23vurLCF4q1tnlrj0MbUxw3ycHQNBCnB7V6kZljMzLFC86twMdoULp5yRuTjQr7TnyZb5u0Je060isdIxHP78Jjeb6u83r74rXGOJEYd89gxgYcYFxIYoQzattCSn5c8GxISwIORk4W9WlYn3vwcu+rxO0OXZDhB27a0uvt7mGURLzEqEUMDCocevdgzAQFevilU46ytap3Vyl9xwbVu9GjlnVs8TMVXluMjjJm0cCxIywPDx5851N1JtrcOrQMlAScwUQxRo33dFEUuNpaEY8byaQI1IwrEihNHTSMUjhOep1clgaeuK7fGORWciDANSHND54S3PpEaU1jpKYKwAFYOf1dQwORzlpvL0XOCuSHFl9fNLHNIupSL7ADnW2bOg4BRIzswabt1Ww7dpq76WuG5TEXAkooDkYYc++JlTU41GLNMtJxEF2Vt9GiOTU+tIps4TULvTkXX3XZmYJcVXjvo8OyyJh6xMlMVcQD318BPVmlEtAY5EZk5PUk4f3U0ucbyxSSb5McI7PczmuL20ay2QVoqbWwhDQGNC4676hdTP8uBjW8aWvPWzZVsXoFl5n09uSxHZfgZQ9knDhcVEicgpVd74f2p9EgI40xnZVESfrV1qiJObKQmvgAzc1EMf5Yqdu5hDblY6gvF+QkCEhpYyxIlVFGublnHTktkne1ASAOIqw64a18374xaIk5gpCKYXdH2wgPsd7NPnk4nCcW7x4mfARJhc8D+sEPOyBQhQpXLurui5jlyFKYq4glAKuGatiZLNCpM//Pg0F74wX3gX3KTjfW3kRRFGMjZuBzdesX2/coZzBvsJIU4u/fWISf/XVcbTnZczcGD9/wv2xe4/duQs5doi0htYajYEIn/78Jjz4yEZE69gjR0nMlQcRkKUWx492ceZUB61WC1OTU7ALCjLTQoL6/XCJ9DBjESgAAwMDGBocxOiWCrbtqPZ1JeCVQknMywgiYGpqEkePHEVmzeLi7hKhtcb27dswOjq67u3KEOv/0VrDcDwhiKGYW5WXlLhdQrfbweTkBGZmZnp6Xv8oJeZlxuTkJI4cOQJj5DMVy4SSTwhaKyNExqDb7WJ+ft6nLMuglMIdd9yB22677YqSmCUxLzOWQ8yQUGmaot1uo9PpLEhZlnmPHWAPXimFu+++G3fccUdJzBLLx2LEtJZdIWutJ2Kr1UKn00G320W320WapsiyzNfhzzTLO+taI0kS1Ot1NBoN7N27F7t27SqJWWL5mJycxKFDh9DtdpFlGdI0LajjNE29ynaEJSJoCQHFcYwoilCpVDwRG40GkiSBUgpxHGNsbAybNm3q7XpdoyTmZcb777+PV155BbOzs2i1WkjT1OeFEs6RrFKp+FSv131yw5zh8CO8V769JGaJ5YOI8Oqrr+LZZ5/1hHLqGAAqlQqazSYajQbq9TqSJPESMoqWN/Nca41t27Zh06ZNpSovsTwQEV577TW8+OKLBbuw2Wyi2WyiUuEFCEKyng/OS7fWIssydLtd7Nq1C7t37152G+sBJTEvM44dO4aDBw8ijmNvFzpv+lxw+USEVquFVqvlvXXnIHW7XSilcNddd+H2228/b5vrCSUxLzMW88odQvJZWQjWGIN2u+2do3a7jSzLYIzx4aKwfhzH+NCHPoR9+/aVxCyxfDhiOo8bQkQXEkrTFJ0Oj6m322202+2Clx7GLKMoQpIkSJIElUoF1WoVjUYDe/bswdjYWEnMEsvHxMQEDh06hPn5eXS7XbTbbb91gXNjjCdVaG+6MFG1WvXbWq2GWq2GSqWCKIqglPLOz5WEkpiXGW+//TZefPFFT0DnuDgoCZi7VKvV0Gg00Gw2UavVvIcex3FB9TtEUVQSs8SFY2ZmBt///vdx6tQpWGuhtfZEi+O4QMR6vY4o4u8JLQdKKTSbTezcudN7+FcKSmJeZhARZmZmsH//frRaLVSrVe+hJ0kCrfVF2YZaazSbTezYsQPV6vqfsd6LkpirhE6ng6NHjy4Y/bkYONtz586dqNfrvdlXBEpiriLSNMXx48cxNzeHTqfTm70sRFGEarWKsbExNBqNi5K26wElMVcZTnK6UZsLgXOUduzYgYGBgSuWlCiJufogInQ6HUxPT1+w1FRKYXh4+IonJUpi9g/L9bx7caUT0qEkZok1ifJltBJrEiUxS6xJlMQssSZRErPEmkRJzBJrEiUxS6xJ/H+Z7J5o/Bt4CQAAAABJRU5ErkJggg==;" parent="1" vertex="1">
                    <mxGeometry x="867" y="-10" width="70.82" height="64" as="geometry"/>
                </mxCell>
                <mxCell id="61" value="" style="image;aspect=fixed;html=1;points=[];align=center;fontSize=12;image=img/lib/azure2/app_services/App_Service_Plans.svg;" parent="1" vertex="1">
                    <mxGeometry x="611.2" y="275" width="20" height="20" as="geometry"/>
                </mxCell>
                <mxCell id="62" value="" style="shape=image;verticalLabelPosition=bottom;labelBackgroundColor=default;verticalAlign=top;aspect=fixed;imageAspect=0;image=data:image/png,iVBORw0KGgoAAAANSUhEUgAAAL4AAAC7CAYAAADbuSQuAAAAAXNSR0IArs4c6QAAAARnQU1BAACxjwv8YQUAAAAJcEhZcwAADsMAAA7DAcdvqGQAAIo2SURBVHhe7P1nsyxJet8J/tw9VOrMo8XVoqq6qiXQIAACTXBAkMOV3BezNmZjtt8FH2a5u9ylLW1nd0gOZ0CBJhqtZWl59dEndWh33xcekSfPueeWalF1q+tv5veejIyMjIz4+xOPdmGttVyCNE1J0/Ti5qfgeR5lWS5et9ttPM87t8+HoSxLZrPZxc1Pwfd9iqJYvI6iiCiKzu3zURiNRhc3PYWLv8fzPNrt9rl9Pgqz2ezcMZ4FKSXGmMXrfr9/7v2Pwpf36Oz1J71H4lnE/32FtZayLCnKkqI0aAtYiy1zwIL0UJ6HrwRRGJIXBUpKgiC4eKgv8TnGl8SvYK0lLzTTJGM4HjObx+RZjjUGC2ArySwEUko8zyOKGoRhQLcV0Y4CpFKEQYAQ4sLRv8TnDV8SH8iLktJYCm2ZzGPee7TP8PSUPM2wNeEBYTQIAVIhpaIRBvQHfdZXevSbIQJDt9sl8H2klOe+40t8vvB7f3estczTnNE8ZRynpIUh05ZcCwor0cLHyAAjA7TwF6O0krQwzJOc6TxhMpsznkw5Ph2SL+m5X+Lzid9riV/r809Op5xOYvLSIPyQLCso8hJjjFNrfGcIGiOcwJcWa0EbiS3mBKQ0fYHnBUzmc75y5yYr/d6XKs/nGM+FxLfWcnF+Xrbt06AoS06OT3i4f8yDowknJ1OyNF94W4yFonCjLC1aQ6kl2rhLV5SWLM0pshRrDclsQhzPP5ZX50t8dnguiC+EQAiBtZY0y9DGLLb9+pCkeU6aZuR5Sao1WaHRpcaUGlOW6CJDFxnWFBhTYHSJ0dYNA6WVFFYBYI0hjhOyPL/4RZ8Kv4nJ/SWexnNB/GVIKUnzkuk8IfkYPuwazyKQtpZCC4yVKKUQSiHrSbWYWBaw7qUVWAsIN6SUWKEoEZQWfM8jSRKSJH3md34UrLVobYjTnNNpwuHJKSenQ+I4ubjrl/iU+FwT31qLNo4EhTakpWaW5JxOYoaTGbN5TJbnH0mwZ6lFxlriNKcoQSgfzw8IlIfnSaSSSKWQylsMhLfw6Egp3FCeI78FbQye75OmKVn26YlfakOSF0yTjIOTIYcnQ6azOXlRkJclWX6min2JT4fPLfFrqZcXJVleMk9zjiYxb37wmMf7x0zjjDgrGA6HlGX5TJI9i/QAxlhG05i8LBFK4vsegVSIWpwL6cheD4R7Gsj6SSCQno9QPsIahC5AeeR5Qf4pyam1Js4KpmlOUWom4xElikanR6PZZDZPGU8mC/I/67d9iQ/H54741lrKUpNkBVme4UnwPIEpCybjKeNZznA0ZDI8ZjYZM54lnJyePtOF+CxbwH1PQZIlZAhQHp5SFeFroju9HUAqifLkOdIr5aGURHkeKJ9CG6LAp9SaNMsptV58/uPAGMN4nhLnJdLzCaKIsL+B9lpMc8skLbBCYGTA6TThZDT5WCkLX+JpfK6Ib4whywuyosT3FL7nM08L9k+nPDwcc3AyI8sLjNakaUo8n1HkGZNZwngyIc0uJ8Fl5K8n2DzOMQZ85eGLmuhO4gshkMqN5Y8LIZw9IARSekipsIDWBl8pZxCXJc4Y+HjQWjOaJaRFgRAgpKIQHkGjhwy6zEufk3nJNMnJi5IkKxhN5hwen3J6OkR/wkn2+47PBfGNteRFsbh5QkBeFIwmMx4fjniwd8re4YjJNMZog8Yj0xCnGWk8J04SRuMJk8mULMsuHh4qslITXmuyPCfLM6QUBEGAr3xktY+QTp0R8vykEcJWur1CCHfphFQIFYD0wVr3Oc8nKw3TeUJeFJiPmAClNszSnDjNsQisVBRGMs8k2nqAT6kVca6Y5R6JVhTakmtDnBWcjsfs7e8zHo/PJYl9iWfjMw1gWetIb7Sm1CVCCLSxTppNY4ajCafTjHmSo7VGSIESEqEknjD4oiCSBt/3aDQadNot+t0OvV4Pz/Mq/d6R3RiNtmCNRRuN1iVFUXA4jjmaQ14KZHUllHe5PFDSEX1ZBRJCYazGFnO8YkSnETDPSjw/YNBt0Ws3CXwfz/fxPecxstbieR7ORQtJXjCcxi5gFoRo4ZOWinkKVluoPlPnC3meRukYTIHVBSaL0XnCoN+n1+3SbDYJwy9zhj4MnynxC23ISwPGEPiSNM04ncQcDKecjGakaYHWzmfvXI1nhJRSogR4NsNkU1ZWBkRhSBj4rPT79HpdSq0ptZPweZaSVjEl5XlEoU/TV0zTkr2JZjLLKHKnZsil73FqT/U5dSbpF+9W6pGwGQFzQiXwoyYIiS4yTJGBtUSNJu1Wg9AT6LJ0k1MptIUkK5jME1QYYaTPPJfECU5dqp8qF0isZIE1GWWeYLMZgc1RlZ3SaTXYWF9bTK4v8TQ+M+JbaxnOEmZZSbsZkaUJRycjjk9nTOYZpdZIseRWFPLcTbRCIoVECYMo54SyIAp8lB9gELSjgEJ4GCtcdiUW8AkCRTMKiMIQ6fskacnxpGAe52hdniO9c1tePgkWW4QCIRHCoqTAD8FXEqs1eZ6RZxmiSNDWoqREWo0tM3rtBu1Wi0az5QgvFJmVxIUkTi1F5tQ+KdVSPMFBKvd9YDGmxJRzzPwUWab4QUgURjQ82NnZRqmzp9OXOMNnRvw8z7l/MOLx8QShQFiP+WxGmmZoY1GeQknldObK0ASwQiGswQoBQiEFKEoipfGkodQlsyTHk5Kg0SSMIgLPd08LGbgnhZIIISmNIs8y0lyjjbsMQoCUXsW1p41it895l+bCEJYSz/eRolavDEZrdJGgtcv01GXBbDYmm8/Y6He4trvF2toapfQ5TiBODM4uru2Ks+8XorI/ls9JWAQFxXzI/PQAT0k8T2HSGV975WUajcaXmaKX4DO9IlkSs7e3z6/e/IAHe8fEaQHCJYV5nodakvSOWJV0lRIlJFJUMlh4aNVEywiLhxU+WngY6WNFiBYRpQ0ojEdawDQuGc1yJrOUeVKrUxalzqS8uPCEOYPz79fntDysBV0adAnGSIQI8PwGXtQlaAwIGgP8Zg+/1Ub4Tq0p8EitIi4gzaAsBdaeHZOliXaR9EI4u0NKRWl9RvOM49GE0+GIk9Mh8zhGmy+9PZfhMyW+QJMlMx4/PuB0eApCEEYRvhcghaxI5oYQEikd2aWUSClQAlRFBm0VmgDhN2m0ejTaPfyghZEhuVGkhSTLDWmmyTJNnmnKosRa3ESSTnWSclk1qL/bfb87h1rPryW9i+TWE8Vag7G6MkQtzt8f4ActgqhDo9mnv7LO1s4VOqublH6bUSYZJxbnkLlA+Ir08qKkB4SwCOnyg5I45WQ05WQ4ZjqdUeQ5WZZi9CcPov0+4DMjflmWRGHAoNtE2pQsmTh3ofJBukCSlR5WeJWv3J2qqqU87rEvPYX0FEIYtJVo2cJv9FFBD2SE1paiyClyN3RZ6c5KVPZDlaMj/SpodQZHdA+pFMrzUV5QpSgohHBDVrbG8hA4L4zRJVoXWKOx1iIApQIa4Sq9tV3C7gaFaDKLBUla5QAtvvvyGMI5CMAabJkzHZ8wHI+YzmaYIicKgmqHL3EZPjPie57H6toau1eu0Gw0iZM5eZ4jrHEuP+lIqAQs1GmoSC4Q0hm9F2GMWZC8yHOXzmCci7IeTmVw5YPO8/H0ZZCymhRS4ikfJVW1v4/nnU3Ey+DOrcrxqZ4g1mh0WaKL0sUiSkGZgy4sprIv6uiw8iRSPU1aIUB59b4WKZ07OCkyTk+P8JRCSYm1hm6vQ6vV+tK4fQaeffd+y/A8D8oCZUq2N1bQhSZLUrTRLg1AnCe9EE66CyEQyqk6CyzyadzPsdZlUgqJUxGW9pVSoRaEdOoK9fGlQkgPpfzKXw+lzolnIybDQ2aTIUWeuprzhS1QqyPqbNQT6eL2yi1pLVVKs1OFPkqySwlKWaRyv0t5jvTgXJ7JbM54OkMCkadohj6rK6tEYXRBdfsSNT4z4kspnX/bV1zZXMP3FUnqpL5UCqWcPk9FSlGRzL1WZ7k0YplYTprXZK9JWUdbz3TxpWOdWchQ2RFCSrCaLBkzOXnC8d49jo8es/fkPkcHj5nPRlhrkaIi+QVjtzrJxfece2/xfuWhuRAdriGqSi8pLUI6XX7p0G6OC0f82XRCkiQo4a5nMwppt9v4vv/Ucb+Ew2dGfADf9+h22myvrxBFEfN4TpImjoCqInJNeimr05UgFFTSWQjvLEX4HOlrgp8ZpY74Z0Rwk8K9Xxuxzqi25FnMZHTM8eETRqeHJPMxo9ERBwePOD58Qp7GC3WrlvDnSX6JV0ic7bM414v7LIhtke5nPv0kECCUAGHJspTJaERpNMIaQl/RbDaIGlHltr3w2S8BnzXxwzCk3+vS73VphhHzNCFOYtfZQPgucOV5FenFU+nBtYpwHo5MSjmV5kytubCXcMYtOHVIqcprJAXWapI4ZjSeMk1yUD6NQNHwFVky5+j4kNl06FQqWcUaLqo1lzDu2ed8HkKeqTJPQTjDXEmL1QVJPGM8PsVXHlZrfE/R7XZoNBqXnsOXcHjW5f2dwPM8pBAUacz2apdG4FOWBUWeOVKKytOyILzDRb39bLszQJVyk+MyCFEXlyiEcE8MN5yHxunfBlNq2lHIoB1BkTAdnqKKOf1WSKPZ5HA8oSiyyhPlyP4sPJ3SfB5CgOfZxfgo0tc/TZfGuWZLQ6fVoBkqeu0W/V6fwA8ueVR8iRrPusS/M2jj8nWu37jOtd0rdNpdEAq7KOJwakMtKaV6NumdyiHOk17IhetRiFo6f3Sw2vclnVZApxnieYqv3L3F1e0N1gY9uq0WEhYq0kUIeXauH9doXZz2hX2FEotRk15KZ+RaofF9w2onYqPfodOIaDYjms2GU3POH+pLLOEzJb4xBq01UsCg32V3d5fV1TU8P1j4tJ0KcV5/rrfXevuZ0Xqe8Aujs9b7Fzr1mYG7GBXrXEqDj++7yHHgeXSaDZQfoMImfujINej18f2lDMiFsbqs51+uw9eoA1CX7lLp8dXPWBizgKv7BTxP0m5HbK6v0O+2aLRaSOVhqmL8L/FsfGbEtxaKUlNqQxAEBL5Hf2VAp0ophtrIO0+ei8bqeaO18pos9qnJXbk3F8blJUEn4SSzkMr56oMI6QVIL6DZ6jCOcwo8/Cii22mzsb6OFziVStT6+8JgXfqhSzg7h4rsl+23+AmO9JfBVv/4vk+n02VtfYNWIyRsNtFCMU+zj1WL/PuMXztJrf74J5UwRamZpzlJVoAQGKk4TQyTaUqWZFhjlzIlaynPR+rvNVukXA7Vi0X6MPBUpmcNURmoAKV26c5lOiPONEpaWk2fTqtF1Gpj/RZpptDaqSnn4grPQB10+jAI79kTh/oa1IUDAEZjs5j54Z4rQ5SKVrPJRr/F6srKJ0pN/rT38nnEr0V8rV3dqrEGv4qCfhxobTidzEmzHKoo56SQjCYJSZJXpHcX36UrLN+Ip2+Kc2tW7T+Wtwt57qEmpUsnuAjnNl3ez5USYg3W5thyDsLi+yFhGKI8n8Io8swVuohK0j8LynPpCpd8daXGLL1xyT7gAnlymfBUP00KrNHksznzwz2KJCHwPbrtJiu9Dv1e72N1ctbapTjbqkjmwyLTXwR8auJrrRnOUo6ODplPJzSaLTbXBhit8X2/qgIKL37M1ZbOU5I0cx4U6RGXkuGsqCS9dkljVah9ocIsQywRuFZRFgarU2XO/q719zNJJpwuUe2zJOEqNWh5PxdEcuV8zq2qwAqMFYtUA/c99dHOIIST8pe9h/sZjvTPeL+GrH7fU8eRlR0gcHXI4wnJ6Qk6mRF5EpTH9sYag17vqXthq+4TxhjSQnM6njOeTlECNtZX8DC0Wk18zz/3uS8KPjHxbdU/JssLhrOER4+fcHR4iFKKzY01wjCiEYU0Gw0aUUCRZzSiEN93SVOFLpnNYzSSEo+kEAznBUmcIaqmTYug0jnUinEtyRcvzz2aax1+8bqaCPU+Lp3BBcWWPwO1AVyrShVxa8Oygq0rAIXTwV0S5uWX8ML8OoePIr3AkZ36OO4Uz+9ffd5NDBfFzccT0tMTstkYIxSrvQ6r/R6dbodGFKGNpTSuKk1rjTGuhcuToxFHJyMElp3NVVqNgG4zotWMnGv0C4ZPTPyyKnAuipI4L3hyeMrewTF5GtPuduj1BjQjH186gy9PE7qtJo1GhO/7SCUwWpPhM8sl43nBdJYgrHH59089YmtynE2GBRGq2iohql441a4L4otK1i9NBmuNmww1s6krmtx3iaq+VUqDqJrDYsBiz6SucPsL5UGVdbk099z31PNh+erWP0VUkdcLWD6G4II9IGp9Z2nb0mekcAFtipJsOGF8cIApc0JPEkUNWu02nXYbKyRWqkraa7BgrOHwdMLpaIouClqNgE6nTcMXDDotet0O6qn78nzjExHfWlcIfjKdI6VHagTDacZwNCONp4jIoxU2CKUFU5DlJUo4BjR8yaDbYHV1gFERw7nlZJIxmydgyvOuwSU4Y/P8Rb8s1H+ZwfpUBLX626kwrhuaxSKVQeCSxsoS1zOTHHCZnaYQGGtQsqhSmT2UVFgRoTyBFwg8rzqnyoVpreuubLW7vBYn4Z/5BLhotF6Eepr0taSvIZR7QlFo8tGc+GgPXRYkpSXTkkBJmu02qys9mo0ItTT55llJnhdkccx4PHHHlrDabbO12qfVbJ590RcAn4j4aV4wmaeMkpxShCQZxGlBUZYozOKmC1sCLv12PBtRzqf0Gz7bm2tsbG4xMSGHpzFxnLo05EsI6gJOy3qt23a2S51XcwYh6pye83CqjVoYzAJHeJceXFDmM7I0Js8y8jxHlzFFrtEubxhq4tYHlArhRXheiB/4zh0bNgibbaKmT9hsuDaE4kzgG1PX/p5BSnsu5fpSeNUOS/tJeV7jWYaocnukMTAviE8OOTg6YTiN8ZTi2u4OW5trhK0IfVGFw5LlBSfjMZOHT/D8EF8JVjpNbl6/tvw1zz0+NvGNMYzmKcN5TqIlhdbMZwV5Xjj1Ycn74nJSnGqSZQlFOqMZCHrdNmG7zyyBWZJjtHsiOL18KeRf6c8XiV3f7meTXpxjSL1NVkyxBsoypcgS8iwhS1PSJCZNZxTpHJMnGFNXNTm1yCJA+QRKIIzr/aONU/6d+uRUJ+V5+EGDsN2j0WrTaLWImk2iZkTUCJDe2Tm4lGRnlMqLRqt0v9/9gPOEF9Vb5/avJPO516JqgKIteZIxPRkxH01QSrG7vU6z00T6HlpA7jS5swlqLVmaMX2wTz4b4UtJu91ipddlbW31ElX0+cTHJv4sSRnPUyaZJbU+eZqRxNmiD7yskrXAiR2pXIGHAKwp8KTLxrTSI82cUSWwVWfiZQuyNnDFUyoOH4v056OnAMaUlEVCmc5J4hlZPCVLYtKqWMW6Nk7uHD2F73vVRJYIpRAywJMCiUYbg9bGlRgaS1EU6LJwhmVpwIvwPIVfPQFarSbdXptGu+meBIGPlDiVyoKobASofu4Fg/fcg/DC6wXpL1ymc/PFgEkybOqaZ4WtBvgKK9wTqKyIv/xZtCE5mTDZe4TQJZ7n0pu/8sLtL8waXx+L+MYYjsdzJmlBoiVJKUnnKUVRYquKqZr0QgisUBgc6f3KYHV6ryNLaTRKOIm3MDRr0i48GU/r7FS6vIP7PFR2wJIh6yYhGF2QZxlZMiOdn1DORyRZhi5yjNYYXBZnGDYImw2iKCL0AwJPYGWAqOoCVBXUEtKRRRvtygm1ddHnIqdIE+bzmKQoMUVKqS0a1waxGQU0uz3a/QHtfodmJ0J4nmOxcU2jLJUevwT3RDi3qXqj+u8C6etdl2+oBPxqWCAD9IV9liEcKTBZyemTPbLJBJMXGAQvXN9hZdD/WHGBzzs+kvi2WozhaJoyziEpJUVSkiZJ5f2oSe8uu1KO9FVxEZ4AKRSWs05gAEK4G+8e3fa8quNo/aGP1cuCTvXxEKCLkmR+wnw6ZD4Zk86GKJODF+JHTaJGg2YUEkYNwigijELndRIKayG3Em0d8QKvImZFGm2dVA4rtUJYsGVJkaekWUqRJszihNksIY1j0iSmFIowajNYWWFje5P2+oCo6SOlwBiBsee9oh9G+gulwQvUV+NieXk9P2x1/h8HChgNp4z3DilnM5qNEJHF3Ll9k0G/f6lQep7wkcQ3xnIyjRkVhlmpyVJNERvyLHc3XTpV5ay2s74gwlla9mxJHGdkyqpnjFNFLkY8L1Nl6u3PSv2VUjmbQgp0WZDGU6ajU2bDfYpkgtElwgvp9bq0O22azSZR1MAPI4SnKBCURqBLA2VJlrslgow2TrJTkluBLyxKegjlY6VH6ElUZPGVwlceIgBfOK+KyXOyNGM+i5lORoxHY+L5FF2WBI0Wq9vX2byyRW+tS9BwQaIPXT3oYqLabwm2mjgKKPKS2cEJ8eEx1uQkScbd67tsbazRaDQufvS5wocS3xhLmpccT1MmJSSFIU8LiqxEW4GSopJKZ/o0dVS1Er1C1DKmTgQ76yYghIuqLkuPc38vVKDq30vIL3B+eAvkyYzp+IjJyT7JfIq1hkYY0Gq1aLa7dDotgkaE8HwMAl0Y0tyQZhlZkVPkKWWSootqfVtr0WVBnro1rZRSyKCBCiJ8pVBeiAqca1N6HrLZoB21aEQ+QSBc1LbUFGlGOpsxGw8ZDoecTGJsWdBZWWVjZ5eN3S26q11E5QUy1jHwotH6uyK9BbzqaR9P5swOT8hPjrHSp9dQ7G5tsL6+fvHjzxU+lPh5UXI6TdiPNdr4lIUhz3PKIkcoV0Ry8V4sJ4oBVbJYZcBe2Lsm/bnHZjUZ3NypjnPJNjevBGBdwfV8ynR4wOR0n2Q2wvN9ur0+/cGATqdL0GiA9Fz+f1GSZQVpnDCZzoinI4o8wVqNNOBLi6ckQeCjlKTMM4wpXVxA+Ujlo6R7SlgDudYUBvA82u0+rW6bsJpkoe/RkAJpS4osZTqZcXg8ZnjwmCxL8RsdBpvbbF/fZrDWJ4iCqrEs2AsPvmXuV3PjN4qLxxRAmZckoxnx/hGmzNB5yubaCld3tmk2n1+p/0zia60Zz2Lu7Q/ZSyztsEOgfNdpuMwr/duRsYaTympxe870d7fvRb1wWdqfe2J8yDa33alYWNczZz4+YXSyz3R4SJHNCcOQlbV1VlZXaXf7KD+k0JpZUjKbjElmU/I4Js9T0izG5gkSjef7NBpNWlFAIwhotppEUfjUeVPbPnlBkWXMk4x56lqZKOVh/BDCJl6jTdRs0u+0aDRC/EAiLGRxzunBHkePH3I6mqClx+r6Krs3b7K2tUqzFSGVfEpX54Ief+mN+5S4eCxdqTvCQBHnjA5PGT55SJqkrPXb3LqyzdbW5qXX5nnAM4mfJAmP9k/4xbv7HI5mbKytsba6TtRoVV6N8hzJwQVkbLU4mrigv18WWV2g8sR85LYKdSCqyBKmo2NOnrzDbDzEGEu722Vre5uNrS1UEJJrSZxkTCcT5pMpw9MjstkpFDFSKrqdDutrK3TaLWfoNtq0Ip8wCAgC1977snC9xSWGFUVBluekWcE8yZiOTzg+PmUap5R4eFGXsLdK2G3T6jbodhq0Gg1EknJ6dMzeo4cc7T1mPp/TX9vlykt32LyySafTPHf9zCVG628Sl3l6PEBaSzJPefLwgHd/9TqmLNlZ7fDSrSvcuX37Qx0Qn2c8k/h5UbJ/POZnb37A3//k57RbLe7ceZFr127jB6FLRzbmnCfChcAraf0RXhlwasvFSOtl25ZR59Xk6ZTxyR6Hjz5genpA2Oiwsr7O1uYm62sDtBcwmmpOp3NGo1Omh4+Zj47wlWR9pcf66oCo0WSl36PTbhFFLpdIKQ/Pd2ocy0+dZ8BWWY5aO1etMW5xtiRJGY3HPNnb5+HeMcZv0N3cobe9Q6PTYb0ZEFrNfDRi//ETHj98wGh0QqO3yu6d21y7fY3+oLP4nt8G8e2HeHkU0ATiJOf9e4/52fd+zP7jx6x0Qu5c3+aVF+5w9+5dgufUr6/++q//+q8vboRaldDoLKEsc05OT5lOp1gBzXaPwD9bQQQqt+YSWYSs9PL6eJVh6vzz1ZDCqTHntteG8RlE1Z2gDkxlyYTx8RNO9h4wGx3RaHfZ3dlm58oV2oM1EqOYTDNOj4/Ye/AuJ4/fR+qU3Y0Vdnd3uLq7y+7OFlubm6ysDGi1zojveR5quVHUxxiuO4PrUuz7LoWhEUW0Wy1WV1e4urtNw5ck0wnT0QhrDEZ6SF8SRSGtRoMoDMi1YDoekcznWCTNTgc/qBaQuEQi/yZw8ZiikvRNIM1KfvWrt/gv/+t/5hc//iFBEDJoh2xtrLG9tUmv16vWDPgiEV8IlJQEngJrmMUJo+Ep0/EQKyWtVhs/CM/l2SzIcE53r8l8RqazGtkzstfDKfC1m7Qai45oUGQZo+PHnB4+IpmNCcKQnd2rbO3sEHa7zAvLwfGYyckRJ/uPyGentEPF7s4WN65dZXdnm/W1VXrdLq1mkyAIFlmhi3P4FFj+DfVECIKAZrPp2qdEIc0oIJRQxHPiJCcrBdbzCBoBzUaIFG7FxHg2I5nPQUgarWZVGPLpzoslo9VWxF5+vQxZBboCa0nTgp/+9Ff87d/8J17/+S8Q1nJle4Pru5tcv7rL1uYmrWZzcd2eNzyT+FTBqCiKkMJiEMTxnOHpEePRKUEQEjWahGFU+fDtUu3qEpmriVFfnIvbnrpoosr1WSK+lAKEwZqC6fCE4yf3SWYjwjBkc3uH7StX8Npd4lxzfDLkeH+f6dFjdD5jtdfh1o1r3Lx5k431VQb9Hs1G4xOV5H0aXPx9jUaD1cGAXruJzhLiWcJ0nhOXGutLGs0GjdDHUz5ZljEbj5iNpwSNFs3KOySF+MTqjl0yhGviX2YYi4r0njYkk5ifvfYu/8v/9D/z9qu/xJeW27ducef6DndvXefqlV0G/QFheLnh/zzgQ4kPriik1WziCYtQPlmuOXx8j6PhmChs0O50CKMGAumis1RR1UW7jzPUpP8wnEWCK9Qld7Yknk84evwe0+ERvu+zvrnF1WvXUJ0OJ/Oc05MJ8fEJ2Wif2WTI9d1Nbt+6yZUrV1hfW6HZbH6mj2YhBGEYsrqyihSa2ekRs/GEtBSoTpNOq0Hke478ecnwaI8i0XQ6bTrNBoGv+LAY12W4SPKLhK+hAN8Y4smMX7z+Pv/y//r/5p1f/pSttR5/+M2vc+faNi/ducmN69dYW1ujEZ03vp83fCTxqcgfBAGNwHOSx2twcHTCaDRECkG30yVqtbDGVqkE5y+IWGoB8iy4PPennwBeAEoa0tmM/YcPOHzwDsYYZ8he2SXs9zk8zhgfHjE/OSAeHZLOR9y+vsudmzfZ3t6i2+187Hrg3wWElPTabaJAIYWlyApmsYYgpBn4VbmfwBQ5J0d72CAg6nZot5tEwCdZ19BWKoz8ENJT6fWnp2O+/6Nf8q/+b/+Ge2+/zje+couvvvQCV3a2uH3jKjdv3mRtdZVGw/XteZ7xsYhPpfaEgU/gu3QnP/AZT6bESYxSHt3uAD/wz8i9UGmengjgdPhautf6/EVI5dyj09GYJw/e5f7bv2I+HdMZrLK6e4VwsMo0M8yGU0b7D5if7uNLw41ru9y+dZON9fXPZatsUQmTKArxpEDnGcl8TpoDvg++e3omec7+4Snjk2O0tTQ7HfqtBuoSSX4ZdPVd9ZV91v4KiKcxv/zpq/zdf/4ue/fe5Wt3r3H7xjVuXr/K7ZvXuXH9Omurq4Rh+JHeuucBH5v4Ugg8zyMMncfC8yRlqUmLAiME/ZVVWq3mklRfMk7FGbmfNayxlIDGuiFAezCdpTx6cJ97777B0d4D2r0Vtm7coL22SWklk5MR06M95sN9GoHk6u4WN29cZ2N9faHafF7heZ5rXCWhzFLiJCU3YJSPCHwsltks43DvCePJFKt82msrBL6HWdL3nxYZT+NZpKci/vH+MW+//hb79++z0g548fZNblTEv3Z19wtFej4J8al0VN/3HcGtxQsCCisxyqfXX6HdblWZmO5WLJN+2VitfdIagQZKYymMJbOQ22oCSMgQ7O/tc/+dN9l/+D5CwJW7L7Fx4wYqbDAbz5jtP2Z6vEfgCa7t7nD71k3W11wS1fNwk3zfJwoDPAFFEjOPc3LrIcOIKPIxpeTw6Ji9/SNGs5RosEJn0EEqhREun742YC+iVm8u8+AsQwInByeMjk8JgCuba2xvb3Hn5nWuXd1ldWXluTZkL8MnIn4NIQRB4KOFj/Ya+M0e3XafMIjcxbFAteCB89W7z1lXFERqDYW1pBZig6sJtVAYKI3ASIlVgmxe8PDtNzi49ybkM7avXOXaV18m6vTJk5LZ4RGjg/uYMuX2zevcvHGd9UoHfZ5ukud5TiXDMJnOmWcaq0Ka7QZKKOKs5Mn+CXt7RwgjWLmxQzMKsFKSVzr/st5fq0GiIjUfQXwBJGmGJxSdqEkj9Ll9bYfrV6+wUpH+i4ZfSyRK6fzM7X4Pv9NeeGNE1TQVXOfhzBhio5lpw2lumBeCuBTkJZjy/C2pG61ao5kePODk0fsU6ZzBxiZXX3yZdn+dPNPMTk+ZDY/I0oTrN25yZXeH1UGfKIrOHe95gVKK7e1trm8PWIk0JhsyK1KCToMr169w4/oWoWd58423efeNh8xnKVQkL60beVVoUg99SYXVZdBAFEV02236/S6rqysUZelqib8ARSeX4dcifpJr8lLiqZCGdC0+rLEUxjDXhmFuGZUwKyEpBVlVbmeXRg3pCZQnUL5btbucjzh8/AHxfEqr02Nr9xor6+tYC+VszvzkgDIZc2V7k+u7Lij1vEn6i1BKsb2xwe5Kl7YtyMcx1of+YMCVK9fZ2NwiTRLee+tN9g6OKbOCcEmVKS0U1cgtzC2kuAlRj8skvwKiMED4HloIlB+Q5gV60bH6i4dPRXyXmVgS5wZdde2VQlBYS6wt8xISDZmx5BZK40bVaQOWngqLIQXSE0gPTFkwOzlhdPAIn4KV1RUG29v47RZ5nBMPj8nnE5phwPUru2ysr9H6nBuyHxfNZoO1fpe1VoRKY+IsRQYe/Y0NVnd2CXyfk/sf8OTRAZNpunBV1nbT8ig5mwT1yOyZalTn6VhABbWh7foNpYUhSc9qqr9o+FTEN9YyiXMS7TwQeB65hVhbYgNpRfSnUKciXCR91QZPeiCEJUsShgeHJNMRnVbI+uYandUVtFDksznT0yOULVlfW2Frc51up1M1k33+IYSg3W6xNujR8QzpNKGwhqDfZrC5Tq/XZT6c8Oj+Y45OhhTaoARoAcaV8C6k+oL8SyOpRlY9Aer3hacIw4DQ97HGYpDM5rFrRPsFxCcmvrWWUhumaUGiBSUROQ0mxkn5ZakOS45kUeX/VCrNOY1EuDpSL3CNqOLpmOHxHsYa+oM1VtfXaTQaFPOccjYhi2e0Ip/tjVW63S6epy7mtT3XCMOQfrfDWq9DmJQUpUb6Pv1Bn43NLTJCHj18yOPHj5mm2cKdqYGymgQW9395yahJny2pQ0ZJRBAg/BBrNGEQMpvHzOPkwtl9MfCJiW+MIU0zZqnzwABYY1296iWkV57Eq4aqmyMt71JJeqUsnhQUacH4ZMpwOMZ4LaLVdbxOn8JIsiQhnY9oRwFrqyusDFZotVrPtV7/LISBz+ZKj6urLYLqLjXbXTZ2b9MbDCimU473jxidTqmXcq6lvakmwMXbsYx6khTCPQFSIAs9iqhaY8zzGE8mzOfzix/9QuATE18bS1wYEizGBxlUHpzqKp+lD7v8fLEk8WsIt0rn2ajIr40lns2Yj46hmNPtdWn1e4jQIzc5Oo/J0zmdboe19XW63c4XkvRULs5ep8VGNyQwApMbpJQMBh3WVgYIETIezjg5HZJaULaqmKo+X0+ADyN/bRTb2vujJDYMKJQPQhDHCVmWXfzYFwKfiPim6pI8S3JKKwnCoMoXP9tHVB2GFz58XAnuYlQluctDSounQBeadDYlm08Qyqe30qfZqYI1WYqOZ+iyoNdp0+/1CJ9T1+XHgRACz/eJfElTgYdBSAjbASsrA8KoQTyLOTk8Jk5zFPapm3lB3nwoNK5mWPo+WghMkaEtzNOM2Wx2cffnHhevFVQEz4uCJHFNkqazOcPxhJPhiOF4TJ5lNKOAVquBHzjpUButy3+LOr2+JvxSHfriPWFRymVl6jwjnU3I0gQvatFbGxA2mygjIE7Qswmhr+h1WrSbDbwviEH7LAggCAJWmh7tQCKUwGt49NZXaXXaFHnO6GRIPEuQ1hF/megfl/TUvn5P4UUBXhggMTSaLQojODodM5rOmc5iV2dcuhbjzyjeey5wjvi14RonCcfHJzx89Jh79x/wzvv3ePXNd3j1rXd59OQATxh21yM63QjlO8PyotEq5LllaZ+ClBalLMpzao5VliKNSWYzijInaob0BwN8P8DmGj1LKOMJK13XtjqKwuc6LfbjQEpJt9tlo9eiHbliFD8MaK+v0u73kcIjmaek0xhrLMrChzVc/igIJfBbEZ31FZq9Hivr66ioxf4o4dV37/P2vYc8OTjhZDRhMpuRJClp5orsn7dJsKi51cYQpwWHp2MePHzE0eE+8Xzm6kmLHGMMrd4Ku9eu88LtGwS9No8zwSiGMnMElMsC+BJOOr3//AWSEoLA7Xz4wWPuvfkm4+N9NlZXuf3Vr+C3uxTTOZMnjxgdPeHO9R3u3L7FymCA738xV+u4iAeP99lLNEMRkVlLNs545617PH5yn0ZL8a0//jZf+ep1hO85//zStb+YvmA+RAVyRLD4WUk3y8hmGccHxzx5ssfx6SlBGKCkpNMMWOu16HXapGnOzsYK2xvrdDrti4f83EKCW+whyUrmac5oOudkPGOSarRq4LdWaG5cYXDrLis3b9Hc2CCLmkxSSZYJjK5KBWvJXo2a5MtjeQ0nIXHL1XtgpEUbS57P0WWK73n0um1k1EQbSJOUNE0RQtJpt4kWVV+/H/AERErS8FwRjd9q0ux0aEZN0IbxeEiaF5gLUneZ9DXRn0V6akNXCkzkUXaaeCttmht9ultrrK6v0YwaCGAyS3h4MOTh/imdwRqd/ipxXnJ0Mrx4yM8tZKkNkzjneJYx0xY/iuhtrLN65Qpr16+xdfsWG3dfZP32C/SuXEV0Bwy1x3ECaeEullTVQsXy/FCeSy/3AvDC6n/P7e8MYPCU22Z0QZ7mlEWJVAq/0aCUgrwoSeaujXcr9Oi02wSB6977+4JmMyL0PNdjUID0Bc1Wg2azjRAB81lMkRdLa3I5iKrAJADC6n8P5wG67OqJ6qlspSDxJEUjIFjrsXFjh5sv3eLanRtcuXmN1Z0tGisDZLuFVSGzNOdkPON4OGE0GmOeg1QHMZ2n9vFwzlFS4Dcj2lFAjiYtSoyFIAyxfuQaaVswBorCoguxcEUK8fSyNVKCUs47YYXGxQIlEkVpLVhn0Ho+KGWYns547+fvcHj/Hr5nuHH3BZq7WxTTnMmj++jxAdtrA77+ta8xGPR/b9QcgDzPeXQy5cE4ZRIECOlxuj/jycPHjMYndAYN/uQ736Iz6IKnFqqOBISxCG3OEqOq0ktTBbqeBVvl8HiAZy1+abCFpsxz0jQjL3KEddEwHU8wWYovLKvtkLt3bn/u74+M04zj0ZQnJ1MejRNGKsB22gT9PqrVJ1cRhYG8sGQZZJlb3UNUUt5J+rMDnrkzXbvpPCtIxzOS4YR0OkeXJUI596XynapjLWRFwTyeU2Qx0pROogtI45Q8SVFS0u12aDR+v9Qc6px9T+ELg0AjlY/fiIjaEWHDc92dS3NO1RGA1JYsyTkdztg7GHJwNGY6TSg+hjFqq1SGFEiEIPEUZTNwqRNbq2xe3WZtdxPZa3OUpuydnnB4eMje/gFaP6tbz+cHMitK0iQlHs0YHSScTA2TqWU2gXgG2VxQpIKyFBi32g+eZ/G8p5eflB74vsD3BGjDdDjn8Zvv8uaPX+e177/G2z95k/13H5JPZkilUZ7TQwtryfOSPJ2RZq4QQ4VV3anVWCEIwoh2u4P6HNXO/q4ghMDzFIGvEJXK0pAQqRBfurWpyqVsVwkobZlMY95/8z4//y8/5sf/9rv8/G9+wGs/eo2DJycUaYH3IdyXlcSnCm6lAmbAEDiu/p8DuQ+Z0czTksk8ZTqbkWXZ517dkaWx5KWh0AZrLAECtzaDUwRdkMmiKvdjbaBKdX4oDzwlkAFYUTAfDnn05jvce+N1ho/eZXr4gKMn9/jgrdd5+PCAySylMK4vQwEUpevOLJRAVkYcgF8/HaQiCkO8z7BLwmcJV4zv2rgILDIAvyHwI7eeV567znYe4BlLmmbce/t93vz+9/ng5z/mybtv8OCNX/LmD3/Aaz/6BY/vPyFP8w8lP9UEqOMDYikiXA8EeEoipaA0lrQwFM+Bj19aa6ulcBz8JcNTeXaxDP2yCiMvib66SWKxwpKnObPhiMnRPiRjvDImtBmqTJmPJzz54BEnx2PyrHAX1UKhy2plQYUfBBX53SIhnqwm1SUdHH5foITAlwL3HHRs9HwP3wvAuqCjrUhqCs3oaMLhu/fITo4ITEY3hJbSMB9x8vgxR3uHzKexk+zPMHZr1KS/OGrIul28dWknjlOfb0gpJZ5Si8aoLrB05nlR3oX0gpr0i8hrNWpLyEIRFxRxRhQpVntNVrotttf6XN1Ypd2ImI/mTEZTiizHE2e92KVwndsi3/Wbr+HI/9G9OL/IkAJHfCGwwjkqlXTEV97ZdbFAnhWMjyeQ5Kx02lzf3eIrd2/y7W+8wt1ru/Q6LXSpSeIUeyHH56Mglp4ANYxx6wFbrFswz16oMvocQvq+a5LKUp+UesGHmujLUh4qPV+KxVDKFZBITyCswBQaz1NsX9lhsL7J6soqt29c55UX77C9PqDd38Ba4Qzdyk/tywDfC4g8RXQhyAUgpMtd+X2FkG59XYuHoQBhET74DUnUOCsEN0BeavK8ZGPnGju7V7h2ZYdvvPwi/5u/+sf80R99m5de+Sqr6+vOu1Ovv/VroNBnqrIpS8zzoOqYssQUJZTnLfGa9FCRXC2NpVQBK126gagkt5AWLxJEocTXFuUFeEFIaTRFaWj1Nxlsdmj1WniBXxm3VdQQKIVHLr54xc2/LjwlCZRYFBAqT+GpCCV7+GIVsZR94nkenU6bZqNJq90hCEO01hR5zvWrV9ge9Flpteg0I6QnKKsCll8HpTbkz4E3p4YsSk2WF5SmRDXMIm/mXBaP8yy6Idz7i1Gt01pXUXmeoNVt0Oi1yXRJXlhyPBIiMtWg3W5yfavL5lqHMApcoXTlKfJ9j0CBZ896BiihkDIA6aT976uebyzo5aVBEajQJ2gHNFqSSImFF8YLFJ1Bg2ZLMRj02Ny5xsrWFYz0yfKCbhSx1W/Tazdc4UqdrvAxYZfy+WtvklNzPslRPltIY6re7tYgPMcvr0ocE7WKA1gBVlo3ROXrqjIupRQoWel/AoIopDHoEKz0kWGAFoqssBhr6XUiNlf79DtNPN9D156DKn9fYZGmxFS1nkJJhARrzHPhH/5twRqDthbjooIAKCUJAoXnW6SnMNL1KRK+ojlo0d/s01/t0241EUIxTQryoqTRDGh2Gnihj73EWK1x0YNTj9qI9gFfuhXc687azuV62dE+X3AJjtagjcaUJb60RAoaniAMIAgqHb/OtFwYuU6395RAKTcPTCUJtJKodpPu9gbdzVWa/T5BMySIFK1ug7DTQAU+VgqsAFX14FHSFa1bazGldpKk2sdajS7Lz7vN9FuDti6fqe5UJ6XFExZFHVxxizYbAVZJgmZIe2OF1kofFQXktiTRJYQBohWgQ4+iWrf3MpraaohaMJ3JOhdHAJoCQuXcmEXp9HqlvMsP+DmD9KUFq4mThNlkjJelRFrTxNJW0PIEYQihD4En8DxHeFF7W6rl420VRMmqaF/hKcJ+i7WbV9h+4Qabt3fpbK9SdlskniSpuoDV8H2fMPCch8JWK41QqVnKA1n3d/n9ZL7WFlMawlIjrPNFCFFgTLFwNvgspSULgQ0D6LexKwPEygB/tYNY65FFPol09+pZV3NZqofWjWa1YETTWprGEBSaPM04HcUcnY4ZT6fk2nl4Pu+QQRThe4J4fMLbr73Oaz9/lwdPTjmdJcRZQVH9+CbQBroC2sKt51qbAbWBWixV+WtwEiUKkN0mdNtkrSYTTzETLmi1uD5CIEMf24zA9zDGUGYFeQ7C8/BCHyEFae7So58nXfI3Aa2dmiikQPlOouqyRJcG5QnClk8QhYilVA5b6eBTTzGPfLJ2g6TdZux7zKRYkH7ZlLN1UKoiewNoVZLdq+y8otSM44xHJ1PeuLfH3/+HH/DOD37A6MG7mHRKdLGRwOcUYjpP7fsPHvOjX73OD3/5FloErGyvs7q6QrfXobnSod3q0mo2aLci2s2ARuhhPdervW5ht3zRWHpMsvR/vU/93sIfbCzlPGHvzXeZPLiPKkp627t427tICfr0hCCesbvW5fbNm89NX8zfFLTWnE4TDuYZI6FIbEmel1U1lMX3fTavrOFFnlMNq8/V96PW4e0FFaYeNer9FeBZsHlBHqfMZynjScLw9JTpZMRsNGV6OmF4fMSDt9+hGxhuXtnk7u1b3Lhxi29/82X63e7nqjX7RYii1Pbo+ITX33qXv//xz3nn0QlaQhSGNBoNglZEFDUJWl06/Q4rgw7r/T79rVWiXgsdeB+6WMFFc7S+0Odoay0UJYdv3mf0/nvYeEp3fQt55TrKD7CTMd5kxErL46W7t6o+Or8/iWp5UXIyyzhMSiYI8jKl1JZ5XlAYTbvZYnVrgA2UczxUqEm+/HpZGIkLwqrebrVhsj/iyf2HHD3ZY3g0YjyaMx8dkCUzsjgljRPSJEaWKTevbHH31nXu3L7Dzdt3ePH2Ndfg63MsnIS11sZxzOMn+7z+5lu8/v4jhuMpaZKQF66sDEB7bWTo02gE9DsDdl++y41X7tBbG6B89RTBa1y8sM+6FBI4fecJp++8TTE6otUb4F29i2o2EfM5jE8JbcY3XrrN6srvT/UVQJIVHM1KjtKSuS0wRYqxPtMipxCG1X6H1moX84y1cbngjalh3cMWqFJSAErDdDTjF//15/zqh9/n8NEj8iQDbZDlBKxxC9yFIWHgs7HS59qVHXZ3drh65Qo3b95ga2ONwP9810wI60AcJ+zv7/PoyR6jecZwOOL09JjxbAbWkuQwnQyZnB4xSzI6N1/hT/75X/LK116kN2jz6/TbEtWjdfrogJN332O+/4Qw8GnfeAU6XShSzPgEZmO+/uIttjc3ntvmsJ8G0zjlcF5ynBbERYyPpMBjUhQYZdlY7RN0m2h1+RpZNekvwjq/BuDc0j6QjWPef+0e/9P//V/z9i/+Dg/N9tYWmyt95wIUgm6vz/r6Or1uh1ajydrqgI21FdbX1lhfW30ueh0tam6ttZRlSZqmTGYzxuMJ4/GY6XTqUoWznFmcsnd0zHvvf8CTueAP/uI7/OF3vs3VmztYIFsKdH0S1MSfnYyZfnCf+PEjbJkTblxFrW3iKYGdnFKcHnPr6g43r+7SaX/+L+5vAsYYhtOY41wzKp33rSb+vLRYX7C63sZvRmjpiF/bUpfBPCNaJRRIbTi+v88P//13ee17/wvS5GxtbbN7ZZdBp8Og0yKIQqIoot1q0u126fW6NBsNGlFEGIaLVSQ/73hqgWdjDGVZLlbszrKMoizRRUma5xwdn/LGO+/yk3f2aO3u8I0//iYvf/UF/NBnvqQ7fhLUxM+SnOmDJ8zu3aOcDgn664iNXVSjicoT1OkxvdBy99ZNVlYGz8UF/nVRliXH05STrGBSOoO2KTxSK4ktEHoM1jsQuMorW0vyS5hvgfIZC2gFAZRJyf037/H9//l/RY4e0wwDbl7b5faN66wOBgz6PbzAx/c8fM+t5xuEgUtyrNLF6/F5x1Mq9/n1WXusr62xtbnJzs42169e4YU7N3nlpRfZ2lilSBLGowlJmi+CHBcNqo8Di2t4KkMfv93EazbcEyhNIcnACkTYRLaajOfJwq35RYe1lrzQZAaSQlNkGaE2uNiowPckjchHeorSgjauNNRWlYZleX7o0r1/2bAWknnC5HhIOpvQarVYXRlwdXeHu7dvcuf2TXZ3d9jZ2mJjfZ2VlYGriIuip9YKfh7wFPFriGqhYs/zCHyfMAxpNpsM+gN2d7ZZHfSweclsPCdOc1iq2PmkxKfy/gglCBoRQauNUD5lnkKaIEsNnoeNIjIN8yQlL54hur5AMMaSFiWpMaRFTpFmhHX0VoAfKMKGh5Eux1BX5NbakVnrp8cybFVDTWXkxjNHfJPM8ZSk3YhYHfRZX1+j3+87L18QLFaAf56IfhHPJP6z4Pke3W6f9cEAz0ryeUoeJwjr1JVPfMAlKAtBGBF1V1DNAcIU2GyOyWIwFi9s02i0GI8nTKdfvLZ2y7DWUmpLri1JUZLnBZQGVRcrS4kMPAg8skuk+8W29vbCghw16cu8+lvDfJIxHc4QuqARRaz2e/Q6HQI/eG4J/ix8Yp5KIWiEHuv9NqHvMZvOmByfEpT6rDroU8BUkUbR9AlXWoT9NkIIdDbHJjMoNXnQIOxvMI2zL2wX3xrGWPJSkxrBJC4wpaIVNQlDHyMLVCSRkUcpFUXmyPss6BKK7OmxrO9nKYxHp0xmh4ggwvc8Wu0WUSP6QgYLP/EvEkKglKLX79HutCmKgpPRiFlRLlY2/zRYTBghkFGAvzLAa7YxZY6JZ9gkxpiSsh1iwojRNObw6Oj8Qb4gsNZSlIZ5njMpcuIkQ1lNO/BQyq0zrEIPIxVZBnkGRf7socsLkr582ruTzjKmp1PKOGa1HRD5inanS6PZRtaFGV8gfGLig1uraWN1wHq/gzSa8emE6SxBWfup9fya+EYAoU+01iforyCkhGyOSCaQ5xQqQPXXmFvJ8en4C7lUTV5o5nnBvDAcj+aIIqflQyOo0gEDhQk8CqvIc0fiy4bOQecWU1qsXhrm7G9T2Qaz0xnjozFFktFrNQjDiE6nQ7MRPfermF+GT/WLpBQMOi02V7tEUjAfzZiM5khjXRXWpyB+DYtblibqtmmsreE1WwhbQjKBOKHUAtvqUYZtZpnmdDT+Qi1SVmpDXJSM05xRkjEZzWhJQy/yUL6iEBZbqzhaoIsl12XlxlyMJWIvj9qTo6tVJ4sMpqdj4ukUa92KLK12m3arQfgF7Vr3qYgvAIlhc7VHv92mzAyTaYoxFvlrduylOr4vJa2NVRorawgvpEwTzHSCzRKS0iBaXWzY5P37j0jT7Kn2ec8jrLUkWc48KxlnBfujIcJk9FsBzShAS0Ea+BgvojSKsgBbSXOsI/HysIA2Am2rYS4MKyiNIM8hjocoVdJpt/CUYq3fpdVofGFjJZ+K+FTroq6vrXH9xl12rt8haHrkv4HazRpCCoJOk3BtgNdqIk2Blw2Rp2NMnJMqSdaOkGHEux/cY/acG7u2WkkyKzTzsmQUp0xHKWudDs1WG+uFFNLD+B6x9ZjPBVkK2rqolSkt2jgiL49aHNhKwp+T/JXuX2Sgcs16K+Lq1gr9bpv19VXa7dbnOsPy18GnI74QWCHpdDu8eGeHb75yjbX1HrmS5MKVKf46D0dbe3ikIOz3CNY3sK0eOouR8SFyNkQnOZkIKXsD4lKwd3TCeDK9eKjnAsZUy6dmBZMcTiYZ82nCSsNjY9DB9xSlsBQKMukxn0NRVIaqhbKS3KZSdUxF6oujJryt8hpqQ9da6PY32d7c4trWKrtbG2jreqV+UfFUysKHwVqLsZBr41Y3tJbMGKYWhp4g8T2McNVZvw7xayiAQpOdTomf7JPuPUShUe01bG8d2e0SRB5hOiNIYlZbIZurfdrt56dPuzbGGbNZwbQwHIwSTkcTpCnYXWnT77bREuZSMZUBY+0zm8tFVuVF2Cp4dRELr05Vqbh8g6wBkhl+fEirOKHn5YTNNptra6wMejS+gCrPJ5L42hiyoiQpXeGz7ylaUUCzEeAFPvY3bARpXGu3oNsiWl1FdvpoAxQxKplgZnPixJI1e2Rhk3FacDwcM5vHz0VhujGWLC+ZpQXTvORolnE8HGOLlJWWz6DXxhhDIgVzGTAtA+Zz4XR7/bRENx8Sta1TGRbvLas9GgibiM4aprVKRoDRmul0ymg8YR4nz8X1/CT42MR3kqkkK0qUFES+q8AaWjgWMKmCUL8paV9DA6LhE611ae1sY6IWuswhmSLmU/LRnFnmkbd7ZM02p3HJwycHxElK+TlubGStJStKZmnOOM05STWP904o5zEbzYDdQQchJLmBFI+5UcwyQZoKR+RKgl8keC3VL7o2z/nul4a1jvylkWSqxSxY5VT0OB7NmM7nnI4mHJ0MF+T/fF7NT46PpeoYY4jTHGPB9xRe4BNXZB/huuiW1Sz6TZJ+GUJbbJwzefiI4skDRJHjNzqI9ipT2SXot+h2FB2bI8czQkrWV/v0Ou3PXdFKbcjOkpRRajma5xwcnVLOpuyu99hebdMMPRIticOQQxsyTDzSxBH1MpiK9JfBVBPhw2C0U4GUMngiJ5g8oJUd0w0MnXabRrvP+nqfTrP9hTB4P5L41sK8KBHW4kmJUJJECsYV6eOK9L9pSf8ULAhj0NM52f1HzPf30HlKs9vHa68x99uIRpNmS9H2NP4spSVL2qFHp9Wi2+1cPOJnAmOcpI8LzeE0Zv90xnA8RxUFV9earPU7hJW/fiJ9DkWbUaJIEoH+kFidrXJvLktHpnp/8fcl+1nrbqAQIIVF2ZhG8oRWcUJHlfS6bVbXNmg0IprNJlH4fBcCfSjxS2NJCo1FEHpuCc9YCE4rKf87I/0ShDaYkzHxoyfEh/vYIqPdX4HmCnnYxoQRXhTQtpq2zGlLQ0O5ZkfNKCKKws/EUDPGUGpDpg3TwnB4OmP/dMw8TgmFYKvfYHelhedJcmCM4tg2OMlD0or0F+9Urdace31xn6XFUBbbalWnfn1xH+E8C6GeEKZHtPWIlaal3+0SRiErgz79bve5Dmw9k/jGGCZJzpNxQhSG9NshIpBMhOAY15Plt6HTfxyo0qCHE5LHT5g9eYQnLI1ODxpdUr9NplpEoaLT9Oj5gobOsXlCtxkRBj6B7+H7rpjitwVHQtcWxFpLVmrirHD6fFKwtzciS2O6ocfuaped9Q6egERrRiiOTYOjJFzo9Jcp18Y6I/fyO+hg9NPS/SIWalJ9HOFSR5QCT8+J8mPa+oDIpnQ6ba7t7rC9uX6pADEulnY2C4VLbPy8TZJnEj8vCh4dT/jxe0dk1uPGzRXW1jsQ+oxqo/MzID1VtZYAmMfoB485ffSAMkuJmi383oAsapPkIaLRpNOKWG369HzwdEY8GREoQb/bptvuYK1Z1B78ujenvuG2UmnK0pCXmqwomOSG08Qtu3R0PMaUJVdXWlxf77LRa+IrmOSaofQ5KCOO4pA4vqDeXHKnbJVSfLZh6e9n6f4XX7NkGFevBSACR36SU/L9XzJ/8ibXdzf55ldf4fatGwRB3eTLTXJtrHN1I7Clm3GCagJ5fjUBcGU0wiU8flZ4JvG11jw+HPKff/I2f/uDn3P1K9f51h9/nRu3r2KA5PLr9ztB/aTxrSXIC9LDU6YP7pGPRyg/oLWyhgoazEREYtwyi1HHpxN49ENBWwk8Y9BZRjKf0W03q0Wjo091M2rJrg1YXZCVhrw0VS694TRNOBkmHE5npHnOwA+5udFmZ6VDN5IIa5gVmiN89somp3OfZO5IX68dXHtqPgwfR7pfpjLVcI1pK9JbS9gQCAmjgye886O/4fT97/IP/+SP+cu/+DNeeeHWOeKnecFwGnMyiYlCl79fFCV5nqN1geeHRGFA6CsagU+7ERIF3qe63r8JPJP41lpOhmN+/Ms3+H/9//6GqSf41nf+lD//zp+w2m0u3Je/Kyw/iev/JbiM0KykGJ2SHBxjxjOaATRbHUzQIjEe88KSW7DKp9HyafiS0Bo8W9CNGoTSLJLTgyBAWk0Y+Hh+gKhScmWVdH3Wr9hZk7pKIc61oTACowvSwjLJNbM0J00y5llKlpcEElZaPtv9NuudkEbgUVrBuLAcFJKDvMlp7JFmAqsrL1n1dboyXuWHXHStqyehOD9JDO50paieEKZ6VFyAre67rRbpiNqCZDbhg9d/xa/+/v9Ln2P+6q/+Cf/4z/+UuzeunPPunI4nHJ5OyY1ga6WLUpKsKMnyAq1LCgNJbjC6RNoSKRX9pk+v26TVaBL8jj1v6q//+q//+uJGcI8hgUVgiLOCD95/j7QoGayvs7W5uiBifR+eNW+XCfusfT4MlxG+1keNgVILhKcQUYgMI6TnOgD7StHwFE1fEnkCaSxGWwpjSHNDmhlKIxHCJ8ktsyRnnuYkhSEtNWm14HWcFcRpTprnJFnBPM0W+87ykmlWMo5zhvOcYVIwnmecTFNOJzGTOKHIUwIMg4bPlUGTqyst1rsRnpTEVnJcSJ5kPvtJyGnskybijLTLmZaVIWsrqX7Z0KbSsY1d1NHWn3P2gFu8wb1fLdlTD2OwlVvIGosfKKQQHDz6gPdf+wGjvTe4fW2LP/jG17h1/eq5LhdxlnN0OmE6T2m3IkJfkWUFWVFiqjR2JVwKhKxWTUnyksk8Rxc5gScJw7PFLX4XeKbEpwpazeOE1957xL/8f/w/2ZslvPKnf8I//z/+UzqtiExc3oNxGZ/GAF4+ISeFLmyrbnQdhfSqBV2UNdg8p5zMiNKUptE0PYWnPDIjmOeGWENSWAotkFK5lV8QSAxCaKywRL7nngDWOPeelIvFMEy9zpOxWOW5XJnSJZdl2mJLTVnkCKsJfEGvoRg0QgatkHYjwPc9CiuYFJbjMuAoU5wkitnMp9Qus7UueFp4W6ofX0tra92T4OKdc0Eti6j+pxJg7rPPXqanfq/eLpWi2QmYT2a89dP/xHs//w+EZsx/+1d/yX/z53/K7RvXaDbdaosAT46G7B279PDt9T5JkjGczilK7Wq2g9CteyCdZ7DU1i0qPkpoqZzr2ytc3dk6pzr9tvGhxAcoS829h4/4t//xe/zdT99AtLv87/+Hf8E3XrqODgLSquvxZcSvye5VxK0XFP6wLzSXvH9Z/klNeuonQGVEKc/5oWWSwSQmynPaStII3aO00IYsK0izklkuSDBYfKyVaGEpZImvnVF2DkuXyRrrVpGp2n84MhlM6Qzlli/oNj1WuyHr3SbtwPW0T0vLVEvGxue0sBwmEeO5RxK7ohGvXnqpahNCpZMvw1Z6uGvvbnlap3cSvO5C4Yx2d3fcdo1dsniX97XWIKR0dc8tyfuv/oy3f/TvmO2/you3rvE//Pf/Z7768kt0O2cxEWMtb7z3kFmS02o1aTUC9g9OOBmNyPICIRXKaxB4gijw8H3X7W2eFIwnCUoU3NpZ4+71Hbrd7uK4v218JPGttSRJwqtvvce//nff5adv3+drf/Q1/k//3T+ju7qC9rxLpb6sCF932dX2rI9muXRjl1GT3lZuuhp1rsky6rO21pXXLQ5YBWF83yKsxS9ywjzFqxjUtBDaEqkLsrxkkmuK0rp1nAwUWpLYp1td6+KsN7+t1hMACK0h8iyRD6GvaDciuu0GrYZznUohKMuCuBSMreLUhBxnDUYTSBNBWeLafl+YaRanugh74XG3BGvN021WKrWl/pCQZwtJLHYxGmsMxuiqjuHsC5TnETYapPMpP/pP/4rTez9mdxDwj/78z/gX/7v/lkG/t3BjGmuZxilvvvMBSikGgwFJlrO/t8dwllGU9fO+Lll1DEkLzTAuyLKUzY7Pi9c2uHPjCiuDwe+svveZOn6NusZWlwXj6ZyDkyFPnhwx2Nikv9onjM7Wq6q7LEjcDSgLTTKZc3o6YTScksQZVkgC392M+pLbZbdb9TjXS5VC9sLTeZFPXuWhnJN6BnRhKQqBKQXaSnLpkcmAXEJmDYk2zPKS4SxhNJqRzKfodIbIY8hjZBGjyhhPZ27kUzwd4+sE3xYEQhNQElLii5JQloTSOHed8rF+hJU+uZEMS4+jUvE4i3gSRxxMfMYTSZoJjFvDzS2nCm4htlovr66FNWahotTDaCe16/dYbDNOmmMXKk4yHzM6ecTo6CHxdIiUPsrzHcGsmzxUk0hKifJ8jNF88Prf8+SdH9AONd/46kv8+Z/8A67sbp9L/yi14d7jQ6ZJhh+6Fecn0znDSUxeuIU9atTnnuc50zjmZBqTFwUtX7DWa7M66NFsNH5nev5HSvwak8mEX719j7/5rz/mb7/3A176B/+Qf/y//UfcvH0FFfhO6mvjyD5PmY6mjIYjho8esX9wSpLmtLttrt29zu2v3KHTa4Ov0JXxtVw6a5f7vVwi7Zcnib2Qn2vtWRKXW6i6Xq7IIihQRiOthqKgnM9JpzP0bIhN59g8J8sLKFOnvkjlJJZZOjmpnG0gJVoGhEFAGPlEjRA/aiKbbfyw76rGkCSFItYwyzzSTFLkrmoK3PnV99mRe3mCuxf1dpbXmKpI5P5c+r9SVaRUYC3z+Yi9+7/i8MHrzMbHeH6Twcoag6079Nau0uysoLwzvdrzfKzVDI8f84vv/Y+Up+/wyt0r/OVffIc/+6M/oN1uo41z3RpjidOMV9+5h+eHNFsNsHB8MmY0nriEtgvMEkKgy5zxPGZvnAFwdRDx8o0tXrx1jbW11UuDYr8NfKTEr+H7Pr7vU+Qpe48+YG/vmHavS7fXJQh85nHK4f4Rj+894f3X3+Htn7/KGz/7Be/8/Oe8//pbPHjnPfYePmI2GuEFDdqdFmEUIqV0zZDq1Nmlm2+qCVFL9XrAGeltFdWsJ4sxwqUuV4GdxTACrRXa+hgZYLwQ44VOOisorSTRirmGLDekhV6MONckhXEen8KQGUuOICfC+k102KaMOtiwSxp2SGyHcRlxmvoM54pprEhjgc6dBSoqX7mTgmCM07OdV6UivHGuP0fo+nUt5WtPzHmpD7Za/dyQzE549M6PuPf6dzn44OfMj+6Tzo6ZHb7HbHpKPJ+QJHPKIgMh3BI+1jIdHnL/7R9yeP9VNvshX335RV584QUazRanoykHp2MOh2OOTsccno4ZTua0mk08zyNOMkaTOUVenCO9qCK3Urq1GYtSM0mc+7jX8FjrNhn0OrRazd+ZqvOxJT5AnMTce/CIv/3ej/n//Nt/R//GXV75kz/myu2bzMdT3nr9dR6++QGjR/eZD/dJ04R+v0+31UQbw3iekRaWGy99nT//P/xTvvoHLzNY7ZNYQV5ckOyV7n7u7Jb+tsYVUtfQxrnLbFVVtAxzIbrpPDVnrwOVI0yJKQp0mWJTyOOxa22iDUVRLHRVpRQy8NFBSMtvgtfEegFWKKxV5FqRFc5YNWUVEDLLqxWewZg6bbqyKZZO0i6MzjOJfvFWWVtHtZwhJZVTYZL5KY/f/SG//C//imQ2YqXfY3N9nTAMmM9jhtMZw0lMYT1669e4+ZU/Zm37NhjLwaO3eP+Nv2OgZrz04ou88OKLrK1vkJeGySwmLdyiFBZLo9FgZ3ObjdUunoTZLOZkNEXrsxu5rNuDm+TjecLD4zFUEv8r1zd54eZVNjY2fmcdHT4R8a21jMZjXnvjbf7d3/xn/v6nrzHXHo3OAKtLbHzo/LJS0Go16PbXuLa1Qr/bwQCjyYz9g0NefechV+68wp/+87/k23/xbVYHHYap6w+zTP7lM7PGdQ2oYUxVb1q/riOSS5+pw/DLMNrtUjlFqqCPdXq2qA5g3W+VViMxWMAqtfTkAKPr/BNRLVbttumy0tNZHMpJ5osngtPfqVQZs+ROdCSvde/qhN2rsw8DpnoKOHJ5eEFIMt3ngzf+jh/+x3/DyZP3+au/+DP+5M//G7av3SbPUspC897bv+Kdt9/gyd4B87QgTVKE3wKr0WWO9AL+4OUbtLqr+M0OQRQRBgHKV/jKtRAMAp9m6DPod1nt98BoZvOYSeykjpSyWlnwDEIoJwBn83PE/+qtHV68fZ31tdVz+/828YmID5DnBSenp/zy9Tf53vd/zBtvv8fJaIKSktV+i0azSTMK6XXabG1ts7W1wfqgT7MZMY8T3n7vfX7yyzd558EBnY1t/uAf/UP+7J99h1a3TVJUBdTF06fk/OdnF/Kii9NWtsLytoUtsISL++my4pPjsCuppFrYTllUHZysAjC66kpW5s4YpZJiTuW48H0LHX2Z0Es7LAxWU022JYlfzxqW1KALcOuBGaTy8PyA+fiA91/7r7z507/h+PF7fPsPvsE/+6d/xUtfeZlGo81kFrM3jBkPT5hNJkwmI46P99m/9w7zOKUsS8IwYHV1na3NNYLOCn7UIgpD2q0mYaPDaq9FqxEgpVvtUAmJtZqycKup56Uzki8jvZQKay2TOOHR0ZAkSdheHXDnygp3r21wbXebMPjdtCv8xMS31pIXBcfHJ/ziV6/yq9de5/HeAQjB5voa6+trDHo9ep02/X6PXn9At92i0YjQWrN/cMjPfvkq3/3Bz3jvwROiwRp//M/+Kd/+R39Eo9clzxVp4tQYKZay/aiKqWsBuOTxOTu3itTVNmsdqevtNcxS3svydmuhNK5Y3hNuxzKPyeJTiqJEeQF+2MXz24CkLKpA1hK5awlevcDUwYYF8c9/obV20YHOPCORxi7870+/54xZQRqPee/Vv+Xtn/8X5qePuXvrGn/5T/4JL770Equra0ghmc1jxklBmpbEae5eT04ZH+8zmwzJ0xTf91lZWaXdG9Dp9mi1OzSjkNATWBkS+Qop3WQsShflLcrcrZVscK5eXaUqGINSPmHUpBG6jspCCNK84HA4Ye/giMD32Vnvc+faFreubdNvR3SaEb732zVyPzHxqW5EWZY8fvKEx4+fcHw6otSGbrvJ+toqg8GAdquF5yuCIFz0T5dSUpYl77//Pj/82S/57t//kDfevU/Q3+Qv/7t/wVf+8Bs0eyvkuSTP6vyYM92dZZWmIuoy+WuCL3Or3r4cCPqw/awBrYCyZHZ6wnDvA6ZH75BlBXgtOqtXWd26QW9lHWu9yntRkb0yOM+O97SeXp+s+8ySegPOeF3+sUsw9kzq2yqj1OURWbJkwsN3fsSrP/j3xKN9bt+4xj/9q7/k9p0XabXbBEGANYZ5muFLSWkl87RgOq9WttSaeDaiLDJ8z6ff6dDqrtBpBjSiEE9JbJFWuTeavMq/WYYQ7kdoXTCeTTkZjjEWOp0ua2tbtCMf3w+Qnot2z+OEe4+ecDoaEYQh2xtrXNvZZGetw7XNAYN2A99zE+W3gU9F/GUY44y/LHPuKakUQeUB+rCTfvvtt/nhz37Jf/qvf893/+7v2bjxMn/13/9feOWP/4Bmr0Magy6cR/EiSZd1d1sbrguvzoJnCyz2WWy4sK3evwqsGWGZHp/y+O0fsvf2d0mO7iGEYFw2iHrbXL39DW5/7Tt0+msYY9Gl86svk5yK6NZWvvWly2wBXftvL1z+eiK5ty67NZayzFHKXd9kPuTJvV/y87/9N4yO7vOVr7zCX/7lP+Ebr7xEYQM6rQhsySxOmM5zlJK0Wg3CMMAYmMc5o3lGkhco36PXbrJWrXyii4Q0SUkSl2Gp9dKT7QJcXECTJVPuHxxzcHRCu9Xk+pUr7GzuYqzFDxuIIEQqiYdhOJpw78Fj9k+PyXXJoNPn2rUdXr6xzc3NAWvd5m+tk9vHdmc+C86wUm51jGrUj7QPQ6/Xww8baANFnvCLn36fNM5ptjfpr18hiBzxbaWW1O7OWtWtt9tKmteS31ZenXqyLAlVqPT+ZR6eC5QJsNKST3MevP0z9t/5PsXwHu1Wg5WVFVrNBunshOnoCL/Rp91dQ0ivkuylMzZNWQWSaolu0GX9nhu15Na6xOiz7eefDoayzKvo6vkBFikVeTrh4NEbvPmL/8rp3tt885t/yF/8o+/wygt38DyPTqeFsZZZnDGP3RoG1lqKvKQo3FOjEXo0wpBuu81Kv0+33UDYnOl0Tjyfk2Vni3BI6eoWLhtCKrSxzJOEJ4cn7Gxu8Off/gZff+kFZqnLVFVhiPJ9kAIRBqz0BvQ7bQLfJ44T9vYPmE6mZNr1D5Voei23tOtH8emT4tcmPhX5L46PgpSSVrNBp91EINAyQltFp7fG+uY2UTekrDr96tqPX+vrtXRf3m6qNIeK0Kby8tkqXYJqX+eRcZ8vq0DX4rgCFIZ0vMfJvZ9g4336nZDtzU12tnfodzu0O138ZpdMe3QHW3hBhLW2WnC5WERPF+Sv/O7GaIxe2lZPjIrkWhfnyO0MXfdjjDYYW6tUtvJ1W5LpkOH+e8wO3ubOtR3+/M/+ITdu3iFstAkaEVIq5klKmuYYa1HK2QP1/bHGoLVGSFUlvWl0UZBnOUVRVukM9T11OT9uUQr3eSHU+e3VxMqLkitb6+xsbeAFIcPJHOX5eEGA9D2Ep0BIPOEThQ163T79bg/fk0xmc0azCXGWUxqJRREqg18tRPGbwm+E+J8Wge/TiCIazSb9reuodpfO6jq9wRpeo+k8KMUlEnxp1NK7Jv/idfVkWEyQmvgLo7hK3a08Mg4CYzTz0R7x8D6d0HB1a4Pruzv84R98i52tDdY2tgg7q8xyaLTXUZ7Tn01ZOHVHL0n8JeLXpF0mea3nu+GI7lSmC4GqeuJUjzWBwOiSLJmRjA8opw+5cu0Gu9euo4KIUht8T5GVljTJKEun09WS0xHfpYwYg0s+r75Xl3qx/0XC12NRSlhNAiHdNiUVnu8TBgGtRoQQiqw0GCsIwoYLkikPoTyUkAjcijuNRtM5Q3pO+k9nc0bjKbM4RRvwlCL0Fb7nbMXfBD5T4lMFhFrtDu3Nq/jrqzQGq3hhC0O4WLdpWdo7sp4nuzVLXp6K4AudvyZ9tX8dcndRLYOtoqE1Sq2Jp2OEnrLeb3Bla52tzQ2+8dWXWV9z3g4RdZhpH+l13GTR5SLKWhuoZyQvl0husVZXalGdb1N9f3WCWtcSf3lSnNkKtt7PlBhdoPMEk43xPA8VNim0IS9dwE2XZ14lcbHUT0iEOEtgs1U6M9b5mNRFVebcE/1M9VhskxIlJX4Y0Gw0sUgybSmtJGo08bygOo5CCA+vmkCy+lwQBAz6bVZXBmAt89mc0XhCnOcgAzwBoS9d4p+UWGvRxlCUmrzQ5KVLuBOX/dZL8JkTHyEw0iOVPgz6yHYXI0LytCqKWjJq7ZJXx1r33mJbRXJTuTOthULjHtc1r4x1xRjWSU9bGQ4LCWs0Vmt0aWn4JSvdkEG/S6PVRVqNHzaQSlEKRRH2yIuQIssoi+JSX7sjfo61TnWxpnQErozbsydBNWob4dy2ahKYema7bZjKs6M8SqsYP3kLPwgQnkeh3brEjcBJSKWe1pFrlUUI4Ui+RGxZ7Ss9hVSVamMdmWo9X0mF5yl8pZDSTRTPc9sCPyCIGvhREz+MkMLDcvZZWU2cQHm4QG3l0lXQ6zRZX+sThiHTOGb/9ASsJNcWTwgaoUIqn6IwTOKU4TThdDJnNE9Jcw0YvKXJ+iz82l6dXxeFtowzzZNMcmgF80KQxhBPz7suL6ImOpWBWu9n67pRa53Ur0kDC++KUx2su+CVRK1nkrWWsihoiBG9KGOtI1lvewSBhx9E0IiY2oD7R/DoYUo8nz/l2jsPd2LL3pqFHWKqXJxq40LyL8HYAqyTyPXHawgJusiYDQ84fvM/sLbaY7CxQ9jq43keu1sbdNqdpxpA1cGkizqziwksbat4I4RACYlSlsh31VJRlXbtC5BKOilbqU+FVRR5Rp67MszMeBjhV8dzE8tX9eJxroZCeQIhwFcS3/MoioIHj/b48c9/RZKkbK2vsbnSY9BpEjWaYGGaFxTaIIxBmoJMSnq+5c7OGtd2Nj60kdhnSnxrLXGuOYwL1y2sFMxSQTKHfKlrmKk0k+V601qNwa1Cj6XKxjQGbVwhSU0ka+2FlIDKg2LNInhktZP87n2LrwytqKQblbR8i0eOiprYoMms8Dk41oxOJ5RlsUReR/AFs3F/GntenWJxbk761zvaKsnoPMlNFSS7/DYZU5LNR+y9/wP8fMjmzjaDzWukhWWtH7G1MqDVbCGUI0FN+lovF0tEr9WaZSgFjdCjUxWZtMIApWRVa1ySZKU7vyoVWkqJ5/vODqkcC1oLYiMpC1M5HZw9oKREepZa4xK4Ki1fefieJM5iPnj8hHvvPaEThawOuvR6bRqBwpMCI9xTRhrDdDLm9ftPKErDlY0VvnJjh2vbq8+MBH+mxDfGMM1LHsUlB0TMc8FsJkhmLiVgsV+lr4tltWcRvHIdnM+ktiPbQk1Y8qpgq0eqBVvpP7XBaKsBYIxGCEngW8IAfAmSAukFaCuJM810klHk6ZmOXBG7dv3Vqoo7dvVUWcbSJHSkt4tzcsRfmhL1tmW9j7PfqcuM04P3GT/6JeurXXau3wEvAFOyudJjdbBCs9l2hukF0gspkJVHpiZuTZTQV7SaAf1Og267AQiyNGM6jxlP50znMfM0J0szN+GrMs0oCmg1m3Q6PTrdDs3QJxcKXVqKEgotELY6F08jpNPNpRALNcX3JMKDaZ6y98E+AZqVbpN+t0XgOTvDVoUz2loOTkf83Y9e5Xg4ZbXf4+WbO7xyc53N9cv7/3ymxC+1ZpRrHuaG/TIkTgTzMSSz8xVYpjJiOePLgiDG1H8bLK6mUwq5pLfXlUaVD3xJtbF1IGnpElioDNWq345yEtJ9pXNbFkXm0nkrKbmYWNV5uf+qJ4hdSrpfxtJ+dfDLTRDOzvHc7gZjjVPhKph6sgtLOp/w5J3vE8mUq1evsr69w3gyp91ssrG+yupggO9HqNpQXSL9MjFEJUUDT7LSjeh3mkShT1GWLiX56ISjkxGnoymTeI7VhjRNz7opC7ckbLvRoN9fYX1tjY3VLp1en0YzwghFVkjXxBaBkBoh7BnplYcUVczAlxgP0vEcaXLagaIdBSjPw1iBNgZT1X0fTBK+972fcf+DBzTDiBeub/KNGyu8+MJdoksK2T9T4seF5qTQ7BnLcR4wGQqmQ6fmXAZrWUoMc0ZqLfVqP7IxepGx6HLTRUV052FxLsfac2Ipy2qFhTo1uIIzSs/r3Of09Bq1KlNLd2Pc3V+6zkLKaqLVyWwGXRSL8xZSgjGU2m1zx71A/Mrt6hQIB2MMBoOUAmPg8NFrpCfvs9Zt8PI3/4g4cYTsdTtsbazT6624wvrK2BVVVqcjfmXQKkkYeKz3IrZXOyipOB5NeeuDR7x17wGTyYQ8yyiLktIYGqGrqah/rq0ERJxm5GVJ4Pusraxw99Zdrl7fptvrImSALg1ppSbWpFfKw0rlao+FKyy2VU1mYQpMqZEIvCBcqIhWWUppGSeGX/7iNV770S+wecGN7TW+eWPAt77+Nfq97tN2zmdFfK0ts8JwbOBQCoax5PQApiMoMosVAk86oi+fYU1YrHEBIWvxwxBrLePjh+w/fIuj/T0akU9vbZfuYItmu48fRHi+K5O01gVuTJmTZ67aypjygpHq1KCFJF88CS5crkqVWtbrpRcs1AcLGFOgi5w8nZPGY+bTU06P9kjiCc1On/Xtm6yuXwNrKYocW/tw66+wupLu9REvQAik9BmfPOb00a9oignf/tY3Ec0VhpMZYRCws7XJld0rqOrppaSTqggPTxms8ABFFCo2VlpcWe1Ras37jw755VsPeOf+I0w+xxhNOxBs9Bqsr6/TaLWIgoDAd82h8qJkPEs4Gs04Go0ZTWYkaU6n2eDanbvcvnmTrfU1fN+jLAylKV0ATfrOuJUWIyXIs5oJV2tx9rutEKTKBRzBpZjkpuTBvUe8+r2fMTo8ZbXb4Bu3NvnWKy+ws7VBFJ1vcvuZEb8oSu4dTXnjYMZhDO3NPtY2SWaKZA5l4ci9OL0lXbnOiBRVjaiUir17r/HeL/6G+2/9kNlsSqM9oNftELZWCdordHo92r1tGq0eUatH1OwSBBFGu3YgeZ5Slk59WcAuPVkqSXZRDakDVnXJnzMWBUWWkCUT0mRCMnNpwPPJCel8jC4y8nhIkswRUjLYuMaNr/wZa9u3EEBZZG4NgPo0KuPcXHjaeNJDVam+WZYwPPqA9OQDWirl1s2bDHZuMU9Sus0GV3a2WVnfxhqDFBZPgVAKK4KqDkHQCDzWeg22V3sILG998JjX3rnH/cd7JGnKILRsb6yxs7XO5voq3W6XMAyrqKp7gljrKqzmScpoMmXv8Jj3H+6zP85QfsjO5ga3rl9lZ2cTz/Mqx4RTvTxhkcIlJqKoWkm43knLsFgSVWCkV1d4o61hdDLhF9/7CQ/e/wAl4KWbu/yDF3e4c+smvW7nnLrz2RG/1PzyvUf8px+9yc/eeMTazho3XvojeitbWCvJEkuRuTyXWo04MxytI73yAMvho7f45ff+Rx6/8yMopqytruCHLYo8Iy2hIEB5AVHUxG/0aHbX6Qw26fbXaXXXCMImFosuL2YdOh36TOqbaoXBykiunh7OowFYQxLPmI1PmA4PiCdHFMmYPJ2R5iW6zPBsSSP0WRl0MEZzOhwxmWVEvW3ufO0fMli/jpQeZZFSLp1L7bu3ApASJX08T2G1Zj4ZcfD4LeajJ7S8nCsbA65fv0ER9BFScHVrgxtXr+K3ehRZjqykvawNW+XhScGgHbLRb9MIfN6+/4Sfvv4eTw4OMGVGrxny0vUtruxssb62SqfTwQ+CRaCrRk0urTV5njOZzdk7GvLW/T0eHpxirWBjfZ3rN2+yvbkKlb4OlXpzdqCF+7O283XtyABKUaKVcktPCedIzYuSV3/yK17/2atMh2OuXdnij1/a4esv3mZjbZUgOHNvfoYBLMFoNOLdd97m+3//Pd577VV0GeKHAWHkerEghDNOtcaUGqOdPi4qd5jRJcODB/zsu/+at3/2N/hkvPTCXb75tVe4urNJMwoJfIknDGWRkk2PmI32GR0/4fjwESf798jiKcpzPnqpVGUUVwGnKupaR8TqSKvLnTmzMYQQaJ0Rj/fZ++BVHr73C44ev00yfAzZEGULWlHASrfFxkqH7Y0VXnn5K9y+dZNOp0M8n7H38H3yPCZsdAnCJghBaZzO787BuWilkEjpIaWiKFImp3vs3X+dg/uvopMhq702N65fY3f3KoejOY1GxJXtLTY3NhBegLWuE4SQzo/uK4vnebQbAau9FlHgcXA64vs/e533H+1jTcn2aocXb+zy9VdeYmd7i06nQxi6dPPaC1SPGlJKfN+n3WqyttKnG3lIIcjyjHmckGnodjsEkY9UEivE+VH18bPuYY/FUhooK/JjJVoItyB4lUDnRZI4yTk+OGZ4fIIA+t0Wa70OnVbjXMOqz4z4UggCJZA64+TgAW+9+hMePnyf8ekJwvo0O+sEoUAqD2tAFwVaF470ngfWMDp6yBs//Pf88D/+S5qh4h98+9t850//hFvXr3Hr6hW2t7fZ2t5ie2uD7Y1VOr0BrdDDljmjkwP277/G6PghgR/R7AwImx2n3ugCo13uzSLKa5yeba2torAWbYqqqgjS2Sn7H/ycD371XYb794g8we72Jjev7XL92lVefuEWd25e4+ruDld2trl1/SrXr+6yubZKEIaMJlPuvfMaViiiZpswamKMQWiNKV2ZmFQeqrIfsnjC8d49Hrz7M/bf/xGRr9haX+POzRvcvHmLTn+do+GU9dUVdjY3aXc7biVDUa1VJiRSuUhrqGCl26LdjJjOE3762rv8/PU3wRTsrLT46u2r/OE3vsrKyuBjZ98uQ0pJv9djpdPEWsNwEnM6maOiiFarUQWazjdbslT2duXQKOx5Z64FjFxazhQIQ0GelRzvH3O8f4jWJSvdFlurPQbdDtFSK5zPjPhUnRsajYhWFLIyGPDk0Qe8/+ZPefTea4xHJ0gZ4fstgrCBH7gbrqpAzOnhPd78yb/nB//Lv0QIzV985zt862tf5eqVHe6+8AJfefEuL75wh5vXr7K5vspqr83O+grXr+5w68YVdjbX8JRkPBohfEnU7tJoDRBSURYppkolttqRXZvCGZm1i1RrhHQp2WUWM9x/n/33f0wyn/HVl1/iW9/4Onfv3GZrY4P11RWubG9ybXeHF+7e4pvf+DovvnCXO7dusrWxzkq/S6/T4r0P7nNy+BBrcxrtDl7QRljjpLznI6VHkcWcHD3i/ls/4PH7PyWbH7G9vcM/+PYfsrvr9NmrV69RyojxdMrm+iaDjTVkFJInBVlWcDwak6RzfFnSbQREvmK136Y0hnfuPeb7P/451hrWuxFff/EWX3v5JTqd3qWpD58EYRjSDHystRyMUoo0o12triKkcotVu7ge2kJuLKW1XAgJYoFMCNeapupY4XmCPLc8evCE9958h/1H+xjjs7ne5cp6n9X++W7YnynxpZSEQcCg36fRatLr9WlFIWk84fH9txk+eZvZdEKpDcrzCQLXcOjk4APe/cXf8O7P/yN5OuFP/+RPePkrL3P71g1uXb/K7s521fbbhdZ73Q6b6+tcu7rLld1ddne22VhbpdNq0V9ZIbcKq5qEURvPC7GFxtjSuSlx7kdTh4prdceUlWFlSWenTE7uk00PefmlF7h18wY3r1/jzq0bvPDCXV5+yZH82rWrbG9tszLo0261CMOAKIqIogipPEpjefz4MePTI4TRNFptPOVuVprOODl6zMP7b7sJNjmg3+tw985dXnnxLrtbG3z95Re5cf0aQvnsn07QpWb3yhX6aytYaRmPxjzeP6Ld8Oh3WoRVxmSvHdIMQ05Op7zx/kPuPXpE24eXbl/l7u0brFf68a9Deir9Pwh8lJRMZzMmcY5QnkuBqFyUpbDoaqHwi8an1i7/KhcCW5kVQrro9fB0zJs/eZWf/eBHPPrgPsZoBmtdrq20uLK5wkq/TxSdNaz6TIlPlZ3ZaDbotNusr62xurpCsxFR5gnD4z1Oj54wHp2QpjG2zJgOD3j/te/xwevfI5secff2Lf7gW9/k7u2b3Lp+jSs72/S7Lj/F2QIu86/ZbNJut2m3W3Q7HXrdLr1ej6jdZe9kRpJDEDQJgybG6LOsysrvXhu5dYakta4YxJqC2eSA+fAJgc14+SsvcmV7i9s3rvLCnVtc3b3C9uY6/b5bf7fRaLhMykpdqIt4okYD3/dc+4/hKaPRKbbKJp3Pxxzvvc/hgzcYnzxiEFmu7mxy++YN7ty6yd2b17h9/Sov3r3N2vo686zknXsPaTYjdq9fpbPSwxjNeDji8PCIG1sDNlb6eEGAsYLVXguwvH//MW++e480TVjrNvjaV17gyu42jch1SftNYJE0ZzT7wxhtDY0ootlsYJVYSHdjnMvbVLl59dDWUlTxj8Jo5pOY/Uf7vPnaa/zyRz/nyYOHCGtZW11ja3ONK72Q3Y01+oP+50fi15BS0m616HZbrK2ssL6+Qa/Xx2hNOj9ldHrI6GSf+XCP/Ydv8vDtn1DEp+xub/Dtb36TF25d5+7NG1y9ssNg0Cf4kLLH2uhqNBq02y3SwvD+w30mcY5SDcKw5VyHunQpvXWecx1htdq5FQVIoSiLhNn4kHR2TC8SXN11atTtG9e4fu0a3U7HSbkLhuAyPKVoNRs0GxFhFJFkKYdHRxwfHzKfjZmNj4hHzlBe67d4+aW7vPLiC9y+eYPrV7a5ff0Kd+/cZmNjnajZYjSd8/pb77O2usLmtR2a3RbWWvI0I43n7K716babCKVAeKz1W6RJwmtvv8c7H9yn3Yy4srXGS3dusrYyWAiR3xS8Kkh2NJyTFCVBGNJoNsD3qzQUR/pSu1VW6mEWbl2XnDY8OeHR+w9557W3eePVX3FyeEwUhmxtrHF9Z4Mr6312Vlpsbqw713a1YAWfF+LXCPyAbqfDymDAYNDn+vYGq2trCFsyPnnM0aO3OXj4FtJk3LpxlW997avcuXmNV+7e4OrVqwwGA8KP2WpaVn73o+MTPnj8mNEsw4gQP2yCsOgyx5py4T93SW5nJYTWWjypyNKEyeiEMpuy2vEZrKyy9v9v78x/4zry7f6pu/W+d5Nsbk1SlORFlj0z9ix5SfDwggcEeP9t8ksSJEiCDDKrZ548lmxRJkVxX7rZ+92rbn6oS5rWWBalkfPk5z5AQUCrW+RVn1u36lvne06zztJim1azgXVDt4DLDWC1XCSbyeL5Hs92njDpn2Eqn1a9xDu3b/OTn/yEzuoqS+0F1leXuXNrnbW1Ds1mg0wmgyHgYjDk8dMD5pot6gtN7VhnmeRyWZ37JQwUBrbtkCsUqRUcLfLa2mbv6IS5ZpV3NlZZXpijkM+/sdn+EvpJZxFFIWM/IsEik81hZTJEkSa8VpMroiRCooiRSPSkI5WkP7jgyYPPefzgM5493WU68Zmfa7LWWWFjsU6nkWN1rsJie55GvU4+r5+0byXxuVwH2hbVSolWq0m1XGSuUWdhfo5KvU6lPsfdO5tsrHVYWV7k7uY6q6tr1Gq64vAqM5NKEqauy+5hl/OLCUGkG6INwwIVXfXR6oMzhYr1Gl8kWvQvDAPPHTMedpGRS71aYnm+wcLCAgvz81Qr5W/UuG+CfD5PIZ+lkMtSLpVYXGxz+/Zt3rt7h1tra7Tm5tjsLLJ5a4O1jnYfKxQKV0unMJZ0B2P2T7s051s05ppkc3qp4jg2pWIR07axnByZbJasLShnLE56Q7ae7jEaXLDWLPPOrXUa9Zq+mV7xGl4GIYSWMBuC08GUUCrsTAYrkydJIE5iYmIUWv4hY4dIgEpMZATDcZ/PP/2SrUeP6HXPyWYzbG50aC/MsVK1WG7kWW7PsbKyrM8cUqeJ69fx1hGfqxlBuzWUikVqtSqNRp1Wo8nifJPlhSarS4vpcmKFer1OJvPqMZ5SSo4ODrgYu1wMp4ynPo6T12cEcZT63KRlhpTslzNOkugqszsdMp30MZOQdiNPe6HN4sIcC3MtyqXiK92IpDO/Y9sUigUqlQqtRoN2q8lSe57V5UXWOyt0OivMt1qUijq8+vp1x1JyMZxycNZjbm6B2lyNbDaHJQwsoQO6HcfGsTM4lkXO0g0rB8en7B0cEfoei/NNNjc6VCuVl7plvD4SojDgdOASJQInm0FkM0TSRCaG7iSTilgmxNea8cMoYnAx5rPf/RZ3MqFaKbPSbrJStVmsZlltN1luzzHfalKvVckXClh26g59DW/2Vn7DME2TYrHIwvy83sTev8cvf/YhP7l/j/ffvcP6WodGo0H2dTdfadmgUsiTcwxk5CHjMC1T2piGPnQxRGq6bxhpy56Rro8hjqaocIwtQgppnGgxn3uhDvwmyOVyLC60uf/+e/zso/t8dP8e7797lzu3b7G53mG+1aJY+utZjPSAy7FtSoUC+UIOy9bvMYSJIUxMQ2DbThp7aurrQNsiJgnYlo2TzePYr16vf1UYJNi2hWWaqX4qxJcRQRwTRAm+r3Bdpb18AkUca21PGPpMx0MMkdAo51ibL3N7pcWdTpv11SUWF9vUGw1yuZyWU3zLNbzVxOeqBOZQKVdoLyyw1lll89YGqysrNNOLe/7LvykMw6BWq1Mu5rCSCG/SZzjoEvg+Mt3IShkRy4gojohkRBxHyFgiVUwUTnDHXWL3AouIQqFAzrEopMR/XRiGQT6fY2F+7up61zod2u021apuy7uSFz/3pQoBWcfSth0F/RQUCECQCIsEEyHSJhBDkAh9A9uWjRAmCQLHefPLm2+DYVnpgZh2akbGxCrEj3ymkynDizH97ghv7BP6EhmRChNDDNPEtCxytqBVyrC2usLa+lq6xNRe+88rMq/j+7+6NwQhwLKMq7JkoVB45TX987Ask5VlbRsipM/o/ICdrb9wuPsl3dNd+t1D+ucnDM5PGHf1GPRO6feOGZ4dcrL3Baf7X+GOBziORSFfIJfJkM9l30jdW98A1673O1rpdAlQO9yRSCrFTFoz17S/ep+wsBCY16rkQggKeQfTEvhSYljfPy2EYZDPF8k4+ia+0nEn4E4Czo5O2ftqm/2dbQZn54ReQBQqZARcuzmFYeBkctRqNeq1OoVC/kbLs+//Ct9yWJZFs1rSh17FLN2nn/Lk0//E40//G08e/G++evh/vjF2P/8fPPvsv7L95//Cw9//d452PsfCZ6FRo1IqUqnoE8LXWnq9JpI02+ti4rJ9cMLecZdsLk/Wdq46lb4LsdI6fMMUxFIx8b7ZTvl9QaAba4RlIGxDKztDGPZcDnd32X3ygKNnXzAcDojjGCUT4iBBulreEEcxMpa6b9c0MM2/fgK+CD964gNUyiU+uf8u//Qf/i2//PgjOovzzFWzlLKQNeNvDltQzGdo1UusLbf54P5HfPDBR3RWVyjms1d7jpt+AX8rlEqYegFbz475y+Ndjk4vME2DuUaVck53XL2M+QngODaVYolsJkNvOCSMvqX34A0iUQmjqU8kFSYmprKI/CSd1QOkFDh2npVWmbsrVZpFE0tEBKHHZOLi+z5CgGMZ2Ib+f3gV/IvJkt8meL7PYDBge2eH3/zuU/rDIUEY4fk63/Z52JZFPhU8Obk8rXqN5fYci+1FNtZWqNdrZL+HMuAlklSiHUQxg7HH8fmA04sBtmlQLxdo1cvkSiVcwyEyDN2/myq8LBK02YeGEFCwwHM9/vjgEX988BBUzD/9/S949/YGpWLx+o9+Y4hiyfZxn5NhRJyYJMJkEsVMYoNRf8T5ySkqmHBrqcytjTXGkUHflXT7Iw6e7vDlZ3+gXMjwwcYCP39/g3ffuUOr2bzxk3ZG/BR+4NPr9tjfP8ALQqaej+f5hJGOrNHKTL0UtUyTrONgmNoMKZdxqFYrzM23adR0c8bl5vNNQ6UWfePxlN5wTHcwYTD2KeZsFubqNJs1nVoYJ4ySVMueJAiVVlGukZ50ZW0bCbYBX361y2/+8M8c7u3xd5/c5+8++Yi5ZuONX4dUiokX8pdnPXxpIAyHSEHfCwjjhDhSeK6HSGIWGkVq5QIDN2Iwieh2++xuf8n+9iOatTw/vbvKz+9tcmtj/ZVSE2fEfw5JkuD5Pp6nnYJ1DBAEsbYCEULokqAhyGazZDJpuTDVBN1kY/W6UAmEsaQ3nPB074CTsx6GYbCxusTtThvbcRgmgmEMKtZWg6DXMmZK+heh6Ai63Qs+ffCQ3/3+j9xabfOP//5XbHSWv9Of5nXgBRHH/SlbR0OkaYBh48cGIy/CCLVaJ1aCKFVeOoYiSgRBGHPR7fH0qyecH20xXy/yi/fX+NWHd1lfX6dYvPm5yYz434JLEZoefF3wv4I2PyK9Eb7tz+8DUinGbsAXTw95tn9Is1Lg3Y1lms0mnkzoxwpfpbr1RGDgYKUHbXxdN/lWFO2EKAjY2nnG//z1b0ik4uN7t/nZB++wsrjw/NtfG0opukOPh3sDplGEbWeIEoNRIJm4urEHIIpjojREW1xu4EOf7tkpW19+wbR/wMbyHL/68Da/uH+XtU6HzLe4KbwIN3su/MggLj0d00YNy7KeG5fWfFp4Zrygpv7GkdqsuGmgtUpgEpl0A4NT38ANFTISENkQW6hY96vGMcSRIro2wjAmCMKrMfVDlGFSb7S4s3mXxMzzrOvx9KhLv99//jd5LSiV0B97HPaGjHwfSxgkGHhRgudr/ZOSIWGo3ZrlVQq97iPwXB93MiScXuhWTD0Fvdb//Yz4PyAIQ+DYJrl8HmEYdAdjdo7OObnwcQNBFFrI0CQOBVGgrRDDUOL7enhedG3EeJ68GmM3wQ0gkyvQ6ayzuDCPGyq2Dy94snfOYDC86nl+HSil6I9dDnpjzseB9to0bYJIMXVDPF+TPY514koU6lKlbjsNCYOQ0XBE/6JPEPg4TlZLMWz7ylrmVfDqn5jhXwyGEGQci0Ylj+lk6I2m7B+d0huMUYFEhhCFCWEQE/gRnufjuTrRZOqFjL3oakz9GC+QV2PiSSZuTBQLytUaG50OhXyOs8GUL/bO2D44pdsfEoThK5U5lUoIopiLscdBb8zZ0COMIGs5hEowdiNcT5M+imKCSBFF2qpcD0Uc66fTaDhgeNEljiTFYpFqKU8hl3kt2fSM+D8wGEJQL9hk8yWUsHE9j+F4gO95hIFPGHgEgU8QBEymIWPXY+J7TIKAURBejWkY4l0fQcBo6jGc+ISRQb21yHxLW4Ac9kb8ebfHZ493ODnr4XqePlC68hT6Ji7LrVEscf2A88GUx4cDjgcBUplkbQeZQG8UMJiGBJEW/Sml01pk6qUUS4UfxPihIIoifHeIN+1DElMrOcyXHRrFLLls9mq5eVPMNrc/MCQJBLHkT4+PePD4Kef9PvV6g87GJjnL1katKfn8MPrGtvz5L/o6Tewk0q4GpkPWtnCEtlfs9Xucdc/wXY9qsUjZkSzU8iwtNGk16mSzWexr6kelFEEYMg0ihhOfi5FPfxoRCwPHsjGFQRArumPJwA1RcUwcKyK9I9eN+5GZWjuGaXEBppMBh7tbnB3tYpkG9+8u86t7a9y7s87S0hKVSuXa1bwcM+L/AKGShL88Pef3n23x5Okelu3w7r2fUijmUr2O0gQKw78iu2NZCKFnU5mu2R3L4krYILR4zQBsxwQUgTdlOuwThRFmEpPJ2uRzGTKmRd4xyOZyOrBBCG0BEkd4EsK0aZzEIGPbyCRhGkjGrmTqxbhhahB2aRlCQqIi/NBAyoTr4Qie53F6sM3pwQ5KRawuNfnlvTV+/sEdbm90KJVKV++9CWbE/4Fi53TI7x5s8afPHzOauHRuvUe5mCGKQqbTiDA2iKUE5ZMkMZbtkC9UqFVqCNO68hhFCCzT1PrN1GTqEpmMjW2bGCSo2EcGLlJK5FXzvcI2tVuGZV4aS2m1JwgM08a2LQxhEkqB64eMvAg3UMhYXdm7SyWQClARSRIj5dcmUpeIpWR0cU73ZJ/BxTG5DLx7a5Wff7DJT9+7RWd58caHV8yI/8NFbxzwpy93+fWnD3my/ZR8qU4pbxMFPoORi+trAhvCx0BiORnKtTna7TVyxSKmaWEkX1uPCwwMy9ABcSn3Lx0RDNPAzphkiJFSEquYRMX6hrhma2ggsAwTw7YwE3TUECaxTOi7Ma4X4IWK8JoTNkAsDeI4geQymVGRJOJaBR9AIOOQ8bDHycE24/4R9XqV9zc7/PL+bT7+4Da1V+h4eys7sGZ4ORzLxIskZ/0Je3uHDPrnTMYTRqMx49GA0eAcbzpAoGfnwPcZDS7wwwTLtrSdSSKI44BYRsSJQSRBSoVQiTbrJUEmCbFKiKSBjBNiaWBYDk4mSyZNL9RW6trH0xYmwjAJlWLoS7qjkP7IZziZEEQhQagII3WtYnM95RG4tHJUCVLpnyklqES7X9uOg2HaDAd93PEQP4xJhEneMWg1dBLMTTa5sxn/B4z90x7/vLXPg60Djk9OkFJip80XQSquKxQL2LbNdOpyeHDMYDikvXSH+eUNipUqkCCSgEQ42JbANrVFozAyZCwDwzIRpqHDGK79bCFAXLNWl7HuSU4AX4KSOgooivRrlzRLl/KA0Ia1SUSsDKSy9e+Cj86YSBDCQCVfyyW0MS+QhJwe73P09CGJ9FhZnOeTDzb5h0/ep7OyRC6Xu/rMizAj/g8Yrh9wfNbj8c4+h6ddwjDCsQwytoFUekmRdSwsy2YcKLYPe/zpz58j44TWwioLyxsUyqV0EykwTaFdlLk0fhJgpD6b11gfxyFRGKBUTC6XmjQlelMdxTK1GlV6Ax1fP/S6HsIhwHDS+FVBkhjpHaE35vrGEiCu6YRS+0jLsggDn/2vHnBxtotlKjZWl/iHj9/hkw/foT3feqm+aEb8HzCSJMH3fXr9ARfDMUEQYpDgWDqpMFbaw8Y0LUZ+zKNnXX796RZPt7cgETTmlplb6pDJ5RFCk940NMEsy0kbOwxIvfMhxvd83PEI3xuTqJBiqUmukMNydO6VrhYBqd2iSrOF9S+srlVqBAiTJNHW4vpI6ev1uRC6z1lHi+qQLGGYem+SBsd1j3c42P6M4YVe7//qw03+8d/8hLu31iiVvltOPSP+vwIkSUIQhsSR7py6rl251BJN/ZCvDrr8/vEJf/jjn9jdfYqUMNdeo95qa39S28RK86UQFpYl0nAGU5vNyoB+t8uo3yMKxhiGIpNrUanXyBcLWLYFCYQxkGiHCqUgil9AsWtSA4EBIlW2pjm1mvsGwrAQhoVpWmn+gN729rtHPHvyZ86PdyiXinz8/hr/8d99zIfv3aFer18JCb8Ns83tvwIIIbDSxu1MJoPjOFfDtm0syyKbcWiUi+QtRSgchhOPfveM0aCLUtoOEWGk/vMmUipIs3mV0ukzQRAxvOgSekNsU5LLZVCJIDH0AZYQ2mYxihRSJkilFaUyzRT7q6GM1CpQIeVlLGuS3qzpbG/YCENn234dW5TgTUecHOzQPT0gCgOqlTLrC0U6y20a9Qb5XO4bpdnnMSP+jwQi9REtFzLolZAgloLBaEr3/BQVTdINpW5VUUoilSKOkysPyzAMCAOXrC2Zr2dZXZrHNIU2ekous8YiovgyRkkTXKaRTX89FFEU4I76jHonDHpHuO4Q07KxM3ksO5MmNdqYll7eKCXx3QkH24/Y3/2CMBjTrBXYXK6zujhHZ2mBZr2Wum/MiD/D1ZPBJGMbZGwLw7aRwiAMPcbjCe50gowDMFLfoEuCpgF6SaK7t4QhEWaCadgolSAsG4w0ifDS6FUmWlkp42uR8/rEKkkgikPc4YB+94j++RH93gn9QY/R4ILAHSHjENMwcTJ5LMfBENp7x5sMOd7/kv2dR4TBmGqlyEq7yUa7wmZnkaX2PNWq7oL7rrLmjPg/MgghyNgWuYxDLmNj2/pJEAQRQRAgZYBpCCw7pwOz0wrL5SrdNPVGUyUGsbSQ2CSGg0oMlNInrlf5wulTQ5u9plGpYYA7HTPsn9E7O2LY7+K5I5SMMIyEMAjwxj3c6YgwDBEkGEJHk4b+hIuzPY6efcF03KdSyrLarnN7dY47nTZrK8u0Wg0KhcJL6/mzze2PFHEcMxxP2Ds6YWvvlIdbezzdP2YwmmDaDtVmB8fJ6dlegGFaaYVFaGKncgdhmld6eL1u107TidJLnFhJZKwTJePAw/c9PHfCdDxgMhnjOBblQo5qOU8xZzOYBFx0z5h6EWamRL0xR73ZplxfIPSnnB8/5eL8gEw2S6dd5c5qi3fWlrh7a525+Xkq5TLZ7MvtJGfE/xFDKR3OfHR2wd7hMY/3TvnqoEdvOKbaWsLJFHDdENf1MYXAsGw9/b8AiZLEYUAkJVEQpA0kHu5khOdNCLwpfhDo02FDP2nm52qsL8/TWahSz1ucTxU7h+c8Ozij1x+ipMKxLcrVJnEU4rkjHMdmcXGBu0sV3llrc3ujQ2d1lWpFL3FuIluYEf9HjiRJiOKY0WjMwfEpj54e89mzHmauiZPJMh6NGfZHuuCYEl+IVMyWQCK1pkYlkiBwGfZP6Z8fMB5PINFpkH6gQ+ySJMEyDXJZm3Ipx3KrylKrzMp8g8X5Jo1GDaXg+GLM9sEpW08P2dk7YjoNtMxBSrIZh8WFOvdWKtxZW2JzfY1OZ5VWq3lj0jMj/gyk5JdSMhpPeHp4yh++POR4YmPZNpOJy2AwQUml5QuXpIe0mm6RSIU/HdG/OOb8dI/pZEwUxZimQSbjYFoZMo5BLmtSLeVplIs0SzaNapmFVo35VpNWo0GtVtXyCi/gtNvj6f4JW7uHbO+fcNIdopSkUcmxudhkY7FBZ2WZ5eVF5ufmKJVKNyY9M+LPcB1RFHF01ud3D/f44iTAME08z2U4nBJF6Hq6YXy92hECIWzi0KN3us/p0Q7j0YBiqUghp92Ys45NOZ+lWMhSytlUy0UatTLNcp5SoUitVqFaqVAul8jn81iWhZQS13XpD8ecdvs83nnG4ck5UsbUynmWWjUWWk2azQb1Wo1SqfSNKM+bYEb8Ga4gpeS0N+K3D/f5/GCCMAx8f8p4PCUIDYRIbcnTU1UQGMJkOrng8NkXnB7uYtk2726usDxfpZDPkLVNanlbG9/mshTzOYqlIuVSmUIuSy6XI5vVh27X3Y2VUlch0SenZ/QvLgijCNtxKJeKVCpV8jkdnPc6XkYz4s9wBaUUR+cDfvOXXR4deRimie+7jMdTwsjAMDMp2XVGgEZC/3yP/d3HjAY92vNNfvHuPO/fXqPVqOmQ7UwWJ5snn8uSyzpkHAfbcbR3/TV7lhdBSh0IEYZ+qkC1yWazLy1ZfhdmxJ/hCkolHJz0+F9//JKdPpiWhe+HjCcBsRRpovolSfWsH/g+249+y9npPoWszUfvrHB3dZ6f3X+PzuoSxWIRK63925aNle4TLgl7U+JeHqBx7TM3/ey34ea7gRl+BNDpgtNAMuwPOT/r0u/18SdTZBSilLbkNiwb03YQhkkUeXieS6IkpbxDu1GkszRHrVqmWCxSKhbJ5/Pkc7mXpj9+F/Sm+s2Zd82IP8MVRCppcByLUf+U4/1dDve2OT3a5vxkl/75AYOLYyajHoE/JQp9JsNzgtAnk81Sr1WpV0oszM9RrVTIprlkN1nO/P/GjPgzXEEIQT7r0K4XcMwIb3rB8OKE7tkBp4fbHO9tcbD7mMNnX3K8t8XJ4TZn+0+IA5dKqcjCXINaqUilXKaYdn69rZit8Wf4Bnw/4OD4lP/8fx/y+MkuJ2c9RsMxrjvBCyISpXtxE5XoOFTvgkKlyZ3NdT5+b517GwvcvXOHhYV5stns8//8W4MZ8Wf4BpIkIQwjdp7t8+jJM56d9DjrD+n1B4w9SRDEBEGA604Zj8aQKJqtOe7davPxe6vcu7tJu71ApVyezfgz/LCQXLU0DuleDOj1BwyGIwbjKZOJi+t5uJ7PdOoSS0mpmGd9aZ67t1ZZX+vQajb/5mC+7xsz4s/wQsRxjO8HeJ6H53tMXQ/f8/D8IB0+YSzJ2Cb1Spm5uRatVotisfit2bJvE2bEn+GluNTyxFK7r8VxTBhFRGFEKBWmAMe2yeayFPL5l0qC3wbMiD/D34TLFkPSJpW3eXlzHS8kvu/7+L7//MsvhGVZKKWuhEY3RRzHTCaT519+IUzTJEkSHMd55arBYDB4/qUX4nLWEkJQfMXkv8lkooOWbwAhBKZpEscx1Wr1+b/+Tsy+o9f/jv4foguFNvvA8zAAAAAASUVORK5CYII=;" parent="1" vertex="1">
                    <mxGeometry x="1150" y="253.5" width="98.56" height="97" as="geometry"/>
                </mxCell>
            </root>
        </mxGraphModel>
    </diagram>
</mxfile>